<svg xmlns="http://www.w3.org/2000/svg" width="1254" height="836" viewBox="0 0 1254 836">
<g>
<path d="M 845.46 493.38 C843.69,494.06 413.38,493.99 410.75,493.31 C409.51,492.99 409.00,491.85 409.00,489.43 L 409.00 486.00 L 430.42 486.00 C442.20,486.00 452.55,485.73 453.42,485.39 C454.81,484.86 455.00,481.32 455.00,455.89 L 455.00 427.00 L 476.75 426.87 C488.71,426.80 500.40,426.82 502.73,426.93 C505.05,427.04 507.75,426.65 508.73,426.08 C510.13,425.25 509.77,425.13 507.00,425.48 C504.73,425.78 505.26,425.48 508.50,424.64 C514.42,423.11 512.93,422.35 503.00,421.85 C493.27,421.37 466.27,421.73 459.97,422.43 C455.87,422.89 453.94,422.67 452.47,421.56 C450.72,420.23 463.96,420.06 571.14,420.03 C680.21,420.00 691.84,419.85 692.39,418.42 C694.45,413.05 692.34,411.72 682.19,412.02 C672.95,412.30 671.00,412.14 671.00,411.11 C671.00,410.62 674.42,405.11 678.60,398.86 C684.93,389.40 686.06,387.11 685.35,385.19 L 684.50 382.88 L 568.50 382.69 C466.56,382.52 452.50,382.32 452.50,381.01 C452.50,379.70 466.91,379.52 572.20,379.51 C693.23,379.50 695.62,379.43 693.55,376.09 C693.08,375.31 658.51,375.00 573.94,375.00 L 455.00 375.00 L 455.00 148.26 L 458.75 147.64 C463.60,146.84 518.34,146.81 520.42,147.61 C521.84,148.15 522.00,155.38 522.00,219.11 L 522.00 290.00 L 499.75 290.11 C487.51,290.17 476.51,290.14 475.30,290.05 C474.10,289.95 472.18,290.37 471.05,290.97 C469.27,291.93 469.00,293.03 469.00,299.43 C469.00,305.22 469.34,306.92 470.58,307.39 C471.45,307.73 507.00,308.00 549.58,308.00 C600.53,308.00 627.00,308.34 627.00,309.00 C627.00,309.88 570.85,310.88 563.00,310.15 C561.62,310.02 558.25,309.96 555.50,310.01 C532.02,310.43 500.59,310.84 486.78,310.91 C472.35,310.99 470.14,311.21 470.64,312.50 C471.13,313.79 476.06,314.00 506.55,314.00 C529.63,314.00 542.10,314.36 542.52,315.03 C542.87,315.59 538.71,320.65 533.28,326.28 C519.04,341.02 502.66,361.21 501.82,365.04 C501.54,366.31 515.30,366.56 608.50,367.00 L 715.50 367.50 L 715.76 424.41 C715.94,464.41 716.35,481.71 717.13,482.66 C718.59,484.41 734.07,484.53 735.80,482.80 C736.46,482.14 737.00,479.46 737.00,476.85 C737.00,472.21 737.09,472.07 740.75,471.03 C745.01,469.82 756.42,467.46 762.75,466.48 C766.08,465.97 767.13,465.32 767.59,463.51 C768.69,459.13 767.64,456.58 764.07,454.90 C763.60,454.67 763.20,454.52 762.83,454.31 C760.17,452.83 758.92,448.81 742.45,400.00 C733.26,372.75 729.63,362.15 709.97,305.00 C704.39,288.77 699.32,273.99 698.71,272.15 C698.07,270.21 696.63,268.43 695.30,267.92 C694.04,267.44 693.00,266.55 693.00,265.95 C693.00,265.34 688.84,260.37 683.75,254.90 C678.66,249.42 674.36,244.55 674.20,244.07 C674.03,243.58 676.18,242.70 678.96,242.10 C681.75,241.50 685.57,240.37 687.45,239.59 L 690.87 238.16 L 699.63 247.08 C704.45,251.99 708.96,256.00 709.65,256.00 C710.81,256.00 711.66,253.26 712.43,247.00 C713.22,240.59 714.33,236.94 715.37,237.30 C716.70,237.76 716.61,240.92 715.12,246.50 C713.52,252.48 713.71,258.67 715.51,259.37 C717.40,260.09 723.29,259.00 724.11,257.77 C724.44,257.26 727.14,256.31 730.11,255.65 C733.65,254.86 735.50,253.95 735.50,252.98 C735.50,252.15 736.38,251.53 737.50,251.57 C740.31,251.67 745.04,254.12 744.41,255.15 C744.12,255.62 744.27,256.00 744.74,256.00 C745.21,256.00 745.60,257.05 745.60,258.33 C745.60,260.96 747.49,269.75 749.82,278.00 C750.68,281.02 751.28,284.18 751.17,285.01 C751.05,285.84 752.09,289.86 753.48,293.93 C756.52,302.88 756.55,303.53 754.00,303.73 C752.64,303.83 752.00,303.26 752.00,301.94 C752.00,300.87 751.59,300.00 751.10,300.00 C749.74,300.00 748.01,294.25 747.96,289.60 C747.93,287.35 747.35,283.92 746.66,282.00 C745.98,280.08 745.30,276.48 745.15,274.00 C744.81,268.14 743.18,260.92 741.83,259.29 C740.03,257.12 728.26,258.00 729.62,260.20 C729.96,260.75 729.19,261.07 727.86,260.94 C724.73,260.63 715.02,262.09 714.93,262.88 C714.88,263.22 714.63,264.62 714.37,266.00 C713.46,270.74 713.35,273.50 714.05,274.50 C714.74,275.48 718.06,285.39 725.94,310.00 C731.78,328.21 736.88,343.05 738.54,346.65 C739.34,348.38 740.00,350.47 740.00,351.28 C740.00,352.09 742.27,359.22 745.05,367.13 C747.84,375.03 751.41,385.77 753.01,391.00 C758.46,408.88 763.29,422.50 764.80,424.25 C766.83,426.60 769.50,426.46 771.91,423.86 C773.67,421.97 773.75,421.42 772.59,419.11 C771.87,417.67 770.25,413.38 768.99,409.56 C767.74,405.74 764.97,398.35 762.85,393.14 C759.04,383.77 758.30,380.89 759.75,381.12 C761.84,381.45 763.00,380.84 763.00,379.42 C763.00,376.24 765.52,378.78 766.39,382.83 C766.88,385.12 767.70,387.00 768.20,387.00 C768.71,387.00 768.85,387.44 768.51,387.98 C767.77,389.18 773.18,414.60 776.55,425.74 C777.06,427.41 776.75,428.13 775.36,428.58 C770.29,430.24 766.62,432.65 767.94,433.46 C771.25,435.51 797.00,425.50 797.00,422.16 C797.00,420.85 791.90,408.62 790.78,407.25 C790.22,406.56 790.03,406.00 790.37,406.00 C790.71,406.00 789.81,402.96 788.38,399.25 L 787.51 397.01 C782.65,384.40 781.86,382.36 782.30,382.05 C782.38,381.99 782.51,381.99 782.67,382.00 C782.72,382.00 782.76,382.00 782.81,382.00 C783.66,382.00 788.00,391.25 788.00,393.07 C788.00,393.65 788.40,393.87 788.89,393.57 C789.38,393.27 789.75,393.58 789.73,394.26 C789.58,398.29 790.32,400.26 793.00,403.00 C795.17,405.22 796.00,407.03 796.00,409.53 C796.00,411.44 796.43,413.00 796.96,413.00 C797.49,413.00 798.47,414.84 799.14,417.08 C800.40,421.29 801.30,421.60 806.21,419.54 C807.52,418.98 808.07,419.47 808.60,421.66 C808.97,423.22 809.60,424.95 810.00,425.50 C810.41,426.05 811.72,429.51 812.93,433.20 C814.14,436.88 816.02,441.03 817.11,442.42 C819.04,444.86 819.53,444.95 832.30,445.22 L 845.50 445.50 L 846.08 463.00 L 830.79 463.02 C822.38,463.02 814.96,463.37 814.30,463.79 C811.92,465.31 814.66,466.77 823.00,468.44 C834.96,470.83 836.00,471.66 836.00,478.90 C836.00,484.65 836.05,484.76 839.12,485.38 C840.84,485.72 843.32,486.00 844.62,486.00 C846.66,486.00 847.00,486.49 847.00,489.39 C847.00,491.52 846.43,493.01 845.46,493.38 ZM 578.09 288.45 C574.46,290.33 571.47,290.56 555.36,290.22 L 542.23 289.94 L 541.47 260.22 C540.70,229.84 541.48,149.18 542.57,148.10 C542.90,147.77 549.09,147.45 556.33,147.39 C573.71,147.24 574.00,147.21 574.00,145.68 C574.00,143.60 539.84,111.00 537.65,111.00 C536.84,111.00 535.10,109.72 533.78,108.16 C531.88,105.90 530.94,105.48 529.20,106.12 C527.05,106.92 527.00,106.75 527.00,99.07 C527.00,92.83 527.33,91.09 528.58,90.61 C530.94,89.70 532.20,89.87 531.50,91.00 C531.16,91.55 531.36,92.00 531.94,92.00 C532.52,92.00 533.00,92.69 533.00,93.53 C533.00,94.41 534.23,95.30 535.95,95.64 C538.50,96.15 538.84,96.59 538.41,98.87 C537.99,101.14 538.79,102.19 544.21,106.52 C547.67,109.28 552.38,112.81 554.68,114.36 C557.44,116.22 558.67,117.69 558.30,118.67 C557.67,120.29 564.44,127.17 577.30,137.97 C581.53,141.53 585.00,144.79 585.00,145.22 C585.00,145.65 583.42,146.00 581.50,146.00 C579.58,146.00 578.00,146.33 578.00,146.74 C578.00,147.14 599.15,168.64 625.00,194.51 C650.85,220.38 672.00,242.12 672.00,242.83 C672.00,243.53 670.31,244.77 668.25,245.60 C666.19,246.42 663.60,247.48 662.50,247.95 C661.40,248.42 657.80,249.82 654.50,251.07 C651.20,252.31 647.97,253.73 647.32,254.22 C646.68,254.72 645.55,254.99 644.82,254.83 C644.10,254.66 641.92,255.13 640.00,255.87 C636.34,257.27 610.60,269.45 608.00,271.01 C607.17,271.51 602.45,274.14 597.50,276.87 C592.55,279.59 586.80,282.98 584.72,284.40 C582.64,285.82 579.66,287.64 578.09,288.45 ZM 561.75 485.31 C564.62,485.77 572.86,485.20 574.05,484.47 C574.43,484.24 575.03,482.23 575.38,480.02 C575.96,476.37 576.30,476.00 579.01,476.00 C581.82,476.00 582.00,476.24 582.00,479.88 C582.00,485.76 583.08,486.16 597.84,485.72 C617.81,485.13 618.63,484.12 618.89,460.02 C618.99,451.50 619.50,444.10 620.03,443.57 C620.66,442.94 621.00,449.93 621.00,463.26 C621.00,482.67 621.12,483.99 622.93,484.96 C625.21,486.18 633.95,486.32 635.77,485.17 C636.75,484.54 636.97,478.21 636.77,456.93 L 636.50 429.50 L 603.50 429.50 L 603.23 450.73 C602.99,469.91 602.79,472.04 601.18,472.91 C600.20,473.43 598.90,473.55 598.29,473.18 C597.68,472.80 595.56,463.27 593.57,452.00 C591.59,440.72 589.76,430.94 589.51,430.25 C589.01,428.86 569.49,428.40 568.66,429.75 C568.40,430.16 566.78,438.60 565.04,448.50 C563.31,458.40 561.24,469.81 560.45,473.86 C558.44,484.08 558.52,484.79 561.75,485.31 ZM 845.13 503.00 L 844.50 509.50 L 629.00 509.64 C510.48,509.71 412.71,509.56 411.75,509.31 C410.61,509.01 410.00,507.88 410.00,506.06 L 410.00 503.27 L 422.75 502.83 C433.88,502.46 754.96,502.48 820.81,502.86 ZM 503.00 485.18 C505.43,486.28 514.96,486.09 519.08,484.86 C526.12,482.75 529.91,476.52 529.98,466.95 C530.01,462.13 528.54,461.00 522.23,461.00 C515.72,461.00 512.81,462.37 513.05,465.32 C513.46,470.49 512.95,473.00 511.50,473.00 C510.23,473.00 510.00,470.56 510.00,457.00 C510.00,443.67 510.24,441.00 511.45,441.00 C512.90,441.00 513.71,443.91 514.24,451.00 L 514.50 454.50 L 529.50 454.50 L 529.67 450.50 C529.76,448.30 529.87,445.49 529.92,444.25 C529.99,442.31 530.54,442.00 534.00,442.00 L 538.00 442.00 L 538.00 484.05 L 540.57 485.02 C543.44,486.12 549.34,486.28 552.75,485.37 C554.99,484.77 555.00,484.71 555.00,463.38 L 555.00 442.00 L 558.95 442.00 C562.65,442.00 562.95,441.78 563.54,438.66 C563.88,436.82 564.01,434.01 563.83,432.41 L 563.50 429.50 L 546.75 429.23 C535.87,429.05 529.96,429.31 529.88,429.98 C529.81,430.54 529.64,431.45 529.50,432.00 C529.36,432.55 529.19,433.93 529.12,435.08 C529.01,436.93 528.71,436.81 526.30,433.94 C522.64,429.59 518.35,428.00 510.28,428.00 C501.84,428.01 497.70,430.24 494.96,436.27 C493.33,439.88 493.04,442.89 493.02,456.73 C492.99,477.38 494.36,481.26 503.00,485.18 ZM 719.00 178.04 C719.00,200.56 718.72,206.99 717.75,206.97 C717.06,206.95 714.54,205.58 712.14,203.92 C709.74,202.25 707.57,201.10 707.32,201.34 C707.08,201.59 705.71,200.71 704.29,199.40 C702.87,198.08 699.19,195.36 696.11,193.35 C693.02,191.34 685.55,186.46 679.50,182.50 C673.45,178.54 665.12,173.15 661.00,170.51 C647.15,161.66 633.52,152.58 630.81,150.40 L 628.12 148.23 L 637.31 147.72 C656.77,146.65 714.79,146.82 716.92,147.95 C718.95,149.05 719.00,149.70 719.00,178.04 ZM 476.74 576.64 C472.10,579.04 463.17,579.43 459.22,577.40 C450.91,573.15 449.52,568.11 450.18,544.78 C450.64,528.75 451.75,525.21 457.21,522.39 C461.36,520.25 471.36,520.20 476.28,522.31 C482.76,525.08 483.95,529.29 483.98,549.43 C484.00,564.63 483.78,566.82 481.90,570.71 C480.65,573.28 478.54,575.70 476.74,576.64 ZM 754.69 265.86 C755.21,266.21 755.33,267.62 754.96,269.00 C754.17,271.87 753.97,271.49 751.47,262.50 C750.55,259.20 749.37,256.24 748.85,255.91 C748.33,255.59 747.81,254.11 747.70,252.63 C747.58,251.05 746.59,249.43 745.32,248.71 C744.12,248.05 737.78,244.24 731.22,240.25 C715.08,230.44 714.78,230.35 705.81,233.04 C701.79,234.25 697.53,235.29 696.34,235.37 C694.77,235.46 686.72,228.28 667.34,209.49 C652.58,195.19 636.78,179.92 632.24,175.56 C621.72,165.46 622.62,163.52 634.19,171.37 C638.76,174.47 643.06,177.01 643.75,177.00 C644.44,177.00 645.00,177.41 645.00,177.92 C645.00,178.42 646.69,179.86 648.75,181.12 C650.81,182.37 652.72,183.68 653.00,184.03 C653.86,185.12 704.28,219.60 708.58,222.03 C715.95,226.21 718.75,222.21 712.33,216.66 C706.87,211.95 704.79,209.87 705.17,209.49 C705.36,209.31 707.09,209.52 709.01,209.97 C710.93,210.43 712.05,210.85 711.50,210.91 C710.95,210.97 713.88,212.94 718.00,215.28 C725.28,219.42 725.50,219.67 725.65,223.52 C725.73,225.71 725.59,226.48 725.33,225.24 C724.82,222.80 723.00,223.12 723.00,225.65 C723.00,228.72 727.25,233.04 733.81,236.64 C743.47,241.94 747.03,244.82 748.62,248.63 C749.39,250.48 750.58,252.01 751.26,252.02 C752.15,252.03 752.18,252.24 751.37,252.77 C750.55,253.30 750.69,254.96 751.87,258.84 C752.82,261.94 753.88,263.83 754.41,263.34 C754.95,262.84 755.00,263.06 754.53,263.86 C754.10,264.61 754.17,265.51 754.69,265.86 ZM 643.73 485.23 C645.26,485.43 650.92,485.48 656.33,485.34 C673.45,484.90 677.00,481.43 677.00,465.13 L 677.00 455.76 L 673.19 451.95 C669.88,448.64 668.57,448.05 663.23,447.45 L 657.07 446.75 L 656.50 429.50 L 641.50 429.50 L 640.97 484.86 ZM 821.15 567.60 L 820.81 577.00 L 810.00 577.00 L 810.00 568.43 C810.00,559.37 810.67,557.18 814.84,552.71 L 817.44 549.93 L 814.82 547.71 C811.04,544.53 810.00,541.88 810.00,535.45 C810.00,530.18 810.28,529.48 813.88,525.88 L 817.76 522.00 L 844.00 522.00 L 844.00 529.50 C844.00,533.83 844.42,537.00 845.00,537.00 C845.55,537.00 846.00,538.12 846.00,539.50 C846.00,540.88 845.56,542.00 845.02,542.00 C844.44,542.00 843.94,548.88 843.77,559.25 L 843.50 576.50 L 832.50 576.50 L 832.21 566.56 C831.91,556.06 831.14,554.00 827.53,554.00 C823.11,554.00 821.53,557.38 821.15,567.60 ZM 759.50 584.00 C759.87,584.59 758.69,585.00 756.60,585.00 C753.34,585.00 753.00,584.71 752.00,581.00 L 750.92 577.00 L 739.16 577.00 C731.35,577.00 727.00,576.60 726.20,575.80 C725.33,574.93 725.00,567.77 725.00,549.88 C725.00,536.29 725.27,524.45 725.61,523.58 C726.05,522.44 727.57,522.00 731.11,522.00 L 736.00 522.00 L 736.00 567.91 L 739.44 568.55 C741.32,568.91 743.35,568.90 743.94,568.54 C744.64,568.11 745.00,560.40 745.00,546.02 C745.00,534.00 745.27,523.45 745.61,522.58 C746.06,521.39 747.65,521.00 752.06,521.00 L 757.90 521.00 L 758.20 545.17 C758.43,563.40 758.81,569.44 759.75,569.75 C761.33,570.28 761.51,583.00 759.94,583.00 C759.36,583.00 759.16,583.45 759.50,584.00 ZM 779.27 573.75 C777.85,576.83 777.49,577.00 772.39,577.00 L 767.00 577.00 L 767.00 522.00 L 778.00 522.00 L 778.00 535.00 C778.00,546.83 778.16,548.00 779.79,548.00 C781.16,548.00 782.49,545.48 785.44,537.25 C790.83,522.22 791.00,522.00 797.02,522.00 L 802.00 522.00 L 802.00 577.00 L 797.07 577.00 C790.95,577.00 790.83,576.70 791.14,562.31 C791.37,551.85 790.72,547.00 789.07,547.00 C788.64,547.00 786.59,552.29 784.52,558.75 C782.46,565.21 780.09,571.96 779.27,573.75 ZM 501.50 553.50 L 500.94 577.00 L 496.13 577.00 C493.49,577.00 491.03,576.70 490.67,576.33 C490.30,575.97 490.00,563.59 490.00,548.83 L 490.00 522.00 L 501.00 522.00 L 501.00 544.11 L 505.75 543.80 L 510.50 543.50 L 511.50 521.50 L 517.75 521.20 C523.19,520.94 524.01,521.14 524.07,522.70 C524.56,534.33 524.32,565.00 523.75,565.00 C523.34,565.00 523.00,567.70 523.00,571.00 L 523.00 577.00 L 517.95 577.00 C515.86,577.00 514.52,577.00 513.64,576.36 C512.06,575.21 511.98,572.00 511.75,563.00 L 511.50 553.50 ZM 619.00 568.12 L 619.00 577.00 L 608.00 577.00 L 608.00 521.80 L 620.90 522.15 C632.09,522.45 634.08,522.76 636.00,524.50 C639.82,527.96 641.00,531.50 641.00,539.50 C641.00,551.54 637.76,555.47 627.16,556.31 C619.57,556.91 619.00,557.73 619.00,568.12 ZM 422.00 566.58 L 422.00 577.00 L 412.00 577.00 L 412.00 522.00 L 416.95 522.00 C421.83,522.00 421.92,522.06 422.57,525.51 C422.93,527.44 422.92,531.06 422.54,533.56 C421.57,540.04 422.63,543.87 425.59,544.61 C430.16,545.76 431.00,543.78 431.00,531.88 L 431.00 521.00 L 444.00 521.00 L 443.98 530.25 C443.96,539.40 442.81,543.60 438.77,549.29 C437.68,550.83 437.86,551.35 440.00,552.98 C442.36,554.77 442.52,555.51 442.84,565.94 L 443.18 577.00 L 432.00 577.00 L 432.00 567.07 C432.00,557.25 431.97,557.11 429.10,555.07 C425.62,552.60 423.43,552.43 422.61,554.58 C422.27,555.45 422.00,560.85 422.00,566.58 ZM 697.07 552.80 L 696.50 576.50 L 691.36 576.80 L 686.22 577.10 L 685.50 555.71 C685.09,543.94 685.09,531.55 685.48,528.16 L 686.20 522.00 L 697.00 522.00 L 697.00 545.57 L 699.92 545.80 C701.52,545.92 703.49,545.36 704.30,544.56 C705.79,543.06 707.61,530.79 706.58,529.13 C706.27,528.62 706.29,526.81 706.63,525.10 C707.22,522.14 707.47,522.00 712.11,522.00 C716.49,522.00 717.02,522.25 717.61,524.58 C718.92,529.78 717.40,540.29 714.53,545.95 L 711.76 551.40 L 714.63 553.68 C717.41,555.90 717.51,556.29 717.84,566.49 L 718.18 577.00 L 707.27 577.00 L 706.77 567.41 C706.23,556.97 705.12,554.77 699.78,553.46 ZM 554.19 576.97 C549.50,578.27 544.58,578.17 539.50,576.66 C536.26,575.71 535.06,574.63 533.19,570.99 C530.98,566.70 530.90,565.68 531.19,547.81 L 531.50 529.13 L 534.22 526.29 C539.70,520.57 550.80,519.56 557.54,524.16 C561.30,526.73 562.59,529.32 563.33,535.76 C563.90,540.77 562.50,541.94 557.00,541.06 C553.73,540.54 553.46,540.21 552.91,536.11 C552.29,531.45 550.09,528.99 546.56,529.02 C542.36,529.05 542.12,529.96 541.48,547.85 C540.79,567.42 541.42,570.00 546.95,570.00 C551.11,570.00 553.00,567.64 553.00,562.43 L 553.00 558.00 L 563.00 558.00 L 563.00 563.92 C563.00,568.82 562.56,570.37 560.44,572.89 C559.03,574.57 556.21,576.40 554.19,576.97 ZM 667.83 575.25 C667.09,576.70 665.54,577.00 658.93,577.00 C652.94,577.00 650.80,576.64 650.39,575.58 C649.49,573.23 651.82,570.15 654.75,569.82 C657.26,569.53 657.49,569.15 657.41,565.50 C657.36,563.30 655.93,557.00 654.24,551.50 C648.28,532.06 646.00,524.19 646.00,523.05 C646.00,522.29 647.75,522.00 651.15,522.20 L 656.31 522.50 L 657.78 528.50 C658.59,531.80 659.65,534.65 660.13,534.83 C660.61,535.02 661.00,535.96 661.00,536.93 C661.00,539.60 663.07,545.00 664.10,545.00 C664.59,545.00 665.03,543.99 665.07,542.75 C665.11,541.51 666.15,536.45 667.40,531.50 L 669.65 522.50 L 674.33 522.20 C678.85,521.90 679.00,521.98 678.99,524.70 C678.99,526.24 677.42,534.47 675.51,543.00 C673.29,552.86 672.41,558.63 673.07,558.85 C673.73,559.07 673.58,559.83 672.69,560.85 C671.90,561.76 670.69,564.97 670.00,568.00 C669.30,571.03 668.33,574.29 667.83,575.25 ZM 591.50 532.50 L 590.50 577.50 L 584.27 577.80 L 578.04 578.09 L 577.77 555.30 L 577.50 532.50 L 568.50 531.50 L 567.90 521.00 L 602.00 521.00 L 602.00 531.90 ZM 683.00 229.92 C683.00,232.58 679.70,230.17 668.50,219.37 C654.46,205.82 637.53,189.81 634.08,186.83 C632.76,185.68 627.36,180.84 622.08,176.08 C616.81,171.32 607.44,163.01 601.25,157.62 C595.06,152.23 590.00,147.41 590.00,146.91 C590.00,145.32 595.37,145.93 599.00,147.93 C600.92,149.00 603.62,150.46 605.00,151.18 C608.04,152.77 616.00,161.06 616.00,162.63 C616.00,163.26 625.56,172.92 637.25,184.10 C666.05,211.65 683.00,228.62 683.00,229.92 ZM 627.25 301.54 C624.44,302.76 568.73,303.26 567.00,302.09 C565.75,301.24 566.08,300.58 569.00,298.07 L 572.50 295.08 L 599.17 295.04 C613.84,295.02 626.55,295.27 627.42,295.61 C629.55,296.43 629.43,300.60 627.25,301.54 ZM 462.60 567.83 C464.80,570.97 469.95,570.50 471.71,567.00 C473.47,563.52 473.43,534.16 471.67,531.84 C470.98,530.93 468.88,530.03 467.01,529.84 C461.74,529.31 461.03,531.70 461.01,550.03 C461.00,562.64 461.30,565.98 462.60,567.83 ZM 561.63 411.71 C560.84,412.49 538.35,412.84 537.14,412.09 C536.12,411.45 547.13,392.81 548.88,392.22 C550.11,391.79 562.54,410.79 561.63,411.71 ZM 608.18 412.00 C607.12,412.00 604.96,412.15 603.38,412.33 C597.72,412.99 586.19,411.93 585.73,410.71 C585.30,409.59 595.89,392.04 597.00,392.02 C598.19,392.00 607.23,406.38 607.36,408.49 C607.44,409.76 607.81,410.62 608.18,410.39 C608.56,410.16 609.14,410.42 609.49,410.98 C609.84,411.54 609.25,412.00 608.18,412.00 ZM 513.42 410.75 C513.96,411.72 511.21,412.00 501.05,412.00 L 487.99 412.00 L 493.10 403.75 C493.50,403.10 493.89,402.48 494.25,401.89 C497.88,396.02 499.55,393.30 501.15,393.35 C502.67,393.39 504.13,395.97 507.15,400.74 C510.21,405.56 513.03,410.06 513.42,410.75 ZM 645.50 412.00 C641.10,412.01 636.54,412.29 635.36,412.60 C631.80,413.56 631.69,411.23 635.04,405.73 C641.46,395.20 643.51,392.07 644.02,392.04 C644.56,392.00 652.53,403.79 654.76,407.92 C656.59,411.33 655.16,411.96 645.50,412.00 ZM 579.60 401.29 C576.52,406.08 573.74,410.00 573.45,410.00 C573.15,410.00 572.14,408.59 571.20,406.87 C570.27,405.15 568.59,402.57 567.49,401.12 C566.38,399.68 564.44,396.59 563.17,394.25 L 560.87 390.00 L 573.54 390.00 C583.50,390.00 586.11,390.28 585.72,391.29 C585.44,392.01 582.69,396.51 579.60,401.29 ZM 628.15 399.61 C624.90,404.63 621.80,409.01 621.24,409.35 C620.69,409.69 619.68,408.64 619.01,407.01 C618.33,405.39 616.70,402.89 615.38,401.46 C614.05,400.04 612.07,397.09 610.96,394.91 C609.36,391.78 609.22,390.85 610.28,390.45 C611.02,390.16 616.67,390.06 622.83,390.22 L 634.04 390.50 ZM 531.55 400.82 C528.67,405.33 526.09,409.24 525.82,409.52 C524.48,410.85 513.54,393.63 514.37,391.48 C515.15,389.45 535.52,389.29 536.29,391.31 C536.57,392.04 534.44,396.32 531.55,400.82 ZM 763.89 369.78 C763.43,371.00 762.91,372.00 762.71,372.00 C761.64,372.00 757.95,357.51 757.56,351.80 C757.31,348.12 756.66,343.39 756.11,341.30 C755.56,339.21 754.35,334.12 753.43,330.00 C751.47,321.26 751.39,321.02 749.81,318.83 C748.16,316.54 750.55,313.38 752.63,315.11 C753.38,315.73 754.00,316.84 754.00,317.57 C754.00,319.79 758.18,326.11 759.37,325.69 C760.53,325.29 760.54,324.03 759.40,318.00 C758.27,312.00 760.06,315.46 762.02,323.06 C763.04,327.05 764.42,330.64 765.09,331.05 C765.75,331.46 766.01,332.52 765.67,333.41 C765.33,334.29 765.51,336.21 766.07,337.67 C768.07,342.94 765.32,341.87 761.96,336.08 C760.07,332.82 758.23,330.62 757.87,331.20 C757.52,331.78 756.80,332.00 756.29,331.68 C755.72,331.33 755.74,333.45 756.33,337.12 C756.99,341.25 757.58,342.72 758.21,341.82 C758.86,340.90 758.96,341.11 758.57,342.52 C757.94,344.81 761.25,361.42 762.15,360.51 C762.47,360.19 762.53,361.00 762.28,362.31 C762.03,363.61 762.47,365.33 763.27,366.12 C764.25,367.10 764.44,368.27 763.89,369.78 ZM 487.78 394.88 C486.56,396.87 483.88,400.90 481.83,403.84 L 478.10 409.18 L 473.72 402.34 C469.01,395.00 467.00,391.47 467.00,390.57 C467.00,390.25 472.17,390.00 478.50,390.00 C484.83,390.00 490.00,390.28 490.00,390.63 C490.00,390.98 489.00,392.89 487.78,394.88 ZM 800.00 441.37 C801.38,441.57 802.95,441.78 803.50,441.85 C804.05,441.92 805.51,441.70 806.74,441.37 C808.58,440.88 808.87,440.30 808.35,438.14 C807.22,433.40 805.01,430.04 802.63,429.44 C801.25,429.10 796.47,430.15 790.90,432.03 C785.73,433.78 780.89,435.39 780.14,435.61 C776.79,436.62 781.59,438.87 789.29,439.91 C793.81,440.52 798.62,441.18 800.00,441.37 ZM 788.00 485.22 C788.00,485.65 796.72,486.00 807.38,486.00 C827.49,486.00 829.90,485.51 828.45,481.74 C827.72,479.84 823.62,479.00 815.12,479.01 C799.47,479.03 788.00,481.65 788.00,485.22 ZM 793.78 381.17 C794.27,386.00 792.54,384.95 787.63,377.45 C783.59,371.28 782.58,370.28 781.46,371.40 C780.72,372.14 780.35,373.81 780.62,375.12 L 781.13 377.50 L 779.58 375.00 C778.73,373.62 776.88,368.92 775.47,364.54 C774.06,360.17 772.48,356.08 771.96,355.46 C770.44,353.61 768.05,346.09 768.84,345.60 C769.24,345.35 771.98,349.61 774.93,355.06 C780.08,364.55 784.00,369.76 784.00,367.10 C784.00,366.43 784.50,366.19 785.11,366.57 C785.82,367.01 786.02,366.59 785.68,365.38 C783.09,356.32 781.55,352.16 780.92,352.55 C780.52,352.80 780.42,352.10 780.71,351.00 C781.00,349.90 781.37,349.00 781.53,349.00 C781.70,349.00 782.60,351.14 783.54,353.75 C788.08,366.35 792.41,377.55 792.92,378.00 C793.24,378.27 793.62,379.70 793.78,381.17 ZM 670.34 400.04 C667.79,403.87 665.62,407.00 665.52,407.00 C665.42,407.00 664.70,405.76 663.92,404.25 C663.14,402.74 661.06,399.58 659.29,397.23 C654.63,391.02 655.51,390.00 665.50,390.00 C676.07,390.00 676.47,390.82 670.34,400.04 ZM 586.50 123.35 C592.79,128.96 588.27,127.57 581.50,121.82 C578.20,119.01 574.93,115.91 574.23,114.91 C572.78,112.85 566.25,107.98 567.38,109.80 C567.80,110.49 567.56,111.03 566.81,111.08 C566.09,111.12 564.73,111.30 563.78,111.48 C562.84,111.67 562.14,111.52 562.24,111.16 C562.33,110.80 561.67,109.11 560.76,107.41 C559.64,105.31 557.64,103.75 554.56,102.58 C550.72,101.11 550.16,100.56 550.96,99.07 C551.70,97.69 551.20,96.62 548.66,94.15 C546.87,92.42 544.92,91.00 544.32,91.00 C542.85,91.00 540.71,88.30 541.70,87.69 C542.43,87.25 546.31,90.14 562.10,102.85 C565.07,105.24 569.30,108.84 571.50,110.85 C573.70,112.86 577.08,115.69 579.00,117.14 C580.92,118.60 584.30,121.39 586.50,123.35 ZM 465.89 412.09 C464.45,413.00 459.81,413.11 456.75,412.31 C455.23,411.91 455.00,410.53 455.00,401.69 L 455.00 391.53 L 458.98 397.01 C461.17,400.03 463.93,404.46 465.12,406.85 C466.91,410.47 467.04,411.36 465.89,412.09 ZM 620.63 545.75 C621.08,547.42 621.97,548.00 624.08,548.00 C627.88,548.00 629.17,545.34 628.80,538.29 C628.52,532.95 628.33,532.59 625.50,531.82 C620.74,530.53 620.00,531.33 620.01,537.72 C620.02,540.90 620.30,544.51 620.63,545.75 ZM 823.60 543.83 C824.71,545.43 825.99,546.02 827.85,545.81 C830.31,545.52 830.52,545.11 830.81,540.05 C831.27,531.90 830.54,530.00 826.96,530.00 C824.65,530.00 823.72,530.60 822.98,532.57 C821.52,536.38 821.79,541.26 823.60,543.83 ZM 606.77 141.00 C607.93,142.87 607.77,143.00 604.24,143.00 C601.83,143.00 599.02,142.04 596.48,140.36 C590.78,136.58 590.53,136.27 591.91,134.61 C592.85,133.48 592.87,132.62 591.99,130.98 C589.80,126.90 591.96,127.75 598.03,133.36 C601.37,136.46 604.43,139.00 604.82,139.00 C605.20,139.00 606.08,139.90 606.77,141.00 ZM 806.50 451.00 C807.36,452.39 835.68,452.33 836.54,450.93 C837.82,448.86 835.67,448.50 821.38,448.41 C807.58,448.32 805.11,448.75 806.50,451.00 ZM 648.00 171.57 C648.00,172.62 645.13,171.86 644.00,170.50 C643.32,169.68 642.29,169.00 641.72,169.00 C641.15,169.00 639.21,167.88 637.41,166.50 C635.61,165.12 633.86,164.00 633.53,164.00 C633.19,164.00 631.70,163.16 630.21,162.13 C621.00,155.78 610.80,150.00 609.85,150.59 C609.19,151.00 608.93,150.72 609.20,149.89 C609.46,149.13 610.43,148.35 611.37,148.17 C612.83,147.89 648.00,170.35 648.00,171.57 ZM 762.56 473.10 C763.52,474.65 787.34,474.20 789.53,472.60 C791.28,471.32 790.93,471.13 785.57,470.47 C779.70,469.73 766.75,470.39 763.65,471.58 C762.75,471.93 762.26,472.61 762.56,473.10 ZM 743.45 484.91 C744.46,486.55 762.17,486.33 764.46,484.65 C767.42,482.49 764.81,481.76 754.27,481.82 C744.97,481.87 742.08,482.70 743.45,484.91 ZM 731.37 290.34 C733.42,293.58 733.11,294.93 730.99,291.99 C730.19,290.87 729.33,290.47 728.97,291.04 C728.05,292.55 724.78,289.20 721.60,283.50 C718.71,278.31 717.40,273.99 718.73,274.02 C719.79,274.04 722.69,275.97 721.69,275.98 C721.25,275.99 722.84,278.59 725.23,281.75 C727.62,284.91 730.39,288.78 731.37,290.34 ZM 802.16 404.32 C803.24,406.98 803.94,409.90 803.73,410.82 C803.51,411.78 802.78,410.56 802.04,408.00 C801.32,405.52 800.53,404.05 800.29,404.72 C799.98,405.59 799.34,405.45 798.07,404.22 C796.79,402.99 796.10,400.27 795.65,394.75 C795.31,390.49 795.19,387.00 795.39,387.00 C795.59,387.00 796.76,389.81 797.98,393.25 C799.20,396.69 801.09,401.67 802.16,404.32 ZM 534.80 283.80 C534.14,284.46 532.66,285.00 531.50,285.00 C528.62,285.00 527.00,283.13 527.00,279.80 C527.00,277.72 527.49,277.00 528.89,277.00 C529.93,277.00 531.06,277.71 531.39,278.57 C531.79,279.61 532.66,279.92 534.00,279.50 C535.51,279.02 536.00,279.32 536.00,280.73 C536.00,281.76 535.46,283.14 534.80,283.80 ZM 528.87 126.92 C528.94,134.59 528.57,141.91 528.06,143.18 C527.43,144.76 527.11,140.10 527.06,128.69 C527.03,119.26 527.39,112.12 527.88,112.43 C528.36,112.72 528.81,119.25 528.87,126.92 ZM 660.80 466.24 C660.56,471.25 660.15,472.55 658.75,472.81 C657.23,473.10 657.00,472.29 657.00,466.57 C657.00,460.62 657.19,460.00 659.05,460.00 C660.92,460.00 661.07,460.52 660.80,466.24 ZM 573.04 122.54 C575.50,125.16 574.76,127.71 572.04,126.02 C571.25,125.53 570.29,125.32 569.91,125.55 C568.41,126.48 566.85,123.15 567.88,121.22 C568.60,119.88 568.57,118.97 567.77,118.17 C567.14,117.54 566.97,116.70 567.37,116.30 C568.36,115.30 570.10,118.16 569.50,119.80 C569.24,120.52 569.40,120.87 569.87,120.58 C570.33,120.30 571.76,121.18 573.04,122.54 ZM 744.63 308.63 C747.89,314.20 746.14,314.32 742.09,308.80 C738.74,304.26 738.47,303.44 740.00,302.50 C740.55,302.16 741.00,302.39 741.00,303.00 C741.00,303.61 741.56,303.79 742.25,303.40 C742.94,303.00 743.18,303.04 742.79,303.47 C742.39,303.91 743.22,306.23 744.63,308.63 ZM 774.22 326.57 C775.20,329.83 775.89,333.40 775.73,334.50 C775.57,335.66 774.93,334.49 774.20,331.71 C773.51,329.07 772.61,327.12 772.19,327.38 C771.77,327.64 771.41,327.10 771.40,326.18 C771.38,325.25 771.01,323.43 770.58,322.13 C769.99,320.37 770.13,319.88 771.11,320.20 C771.83,320.44 773.23,323.31 774.22,326.57 ZM 535.50 153.92 C535.50,159.37 535.16,164.17 534.75,164.58 C534.34,165.00 534.00,160.53 534.00,154.67 C534.00,148.80 534.34,144.00 534.75,144.00 C535.16,144.00 535.50,148.46 535.50,153.92 ZM 746.92 346.28 C748.01,349.42 748.48,352.00 747.97,352.00 C747.46,352.00 746.76,350.88 746.41,349.51 C746.07,348.14 745.50,347.19 745.14,347.41 C744.79,347.63 744.48,346.84 744.45,345.65 C744.42,344.47 744.04,342.38 743.59,341.00 C743.01,339.21 743.08,338.79 743.86,339.53 C744.46,340.09 745.84,343.13 746.92,346.28 ZM 761.00 287.06 C761.00,287.94 760.34,288.67 759.54,288.67 C758.74,288.67 758.27,288.37 758.50,288.00 C758.72,287.64 758.27,284.92 757.49,281.97 C756.71,279.01 756.26,276.41 756.49,276.18 C756.72,275.95 757.22,277.05 757.60,278.63 C757.98,280.21 758.91,282.39 759.65,283.47 C760.39,284.56 761.00,286.17 761.00,287.06 ZM 765.03 299.83 C765.96,303.25 766.34,306.29 765.87,306.58 C765.05,307.08 764.64,306.37 764.86,304.83 C764.91,304.46 764.07,301.62 763.00,298.51 C761.80,295.01 761.49,293.00 762.19,293.23 C762.81,293.44 764.09,296.41 765.03,299.83 ZM 535.98 268.75 C535.99,271.64 535.85,274.00 535.67,274.00 C533.85,274.00 533.37,267.52 535.00,265.00 C535.69,263.93 535.97,264.99 535.98,268.75 ZM 738.76 301.25 C739.39,302.58 738.35,302.05 736.81,300.25 C734.93,298.07 733.80,295.00 734.86,295.00 C735.53,295.00 736.62,296.74 738.76,301.25 ZM 528.10 148.29 C528.80,149.49 528.82,150.96 528.15,152.79 C527.23,155.29 527.15,155.15 527.11,151.00 C527.07,147.42 527.27,146.86 528.10,148.29 ZM 579.10 458.94 C580.17,461.62 579.94,464.62 578.75,463.42 C578.34,463.01 578.03,461.28 578.06,459.58 C578.13,456.57 578.15,456.55 579.10,458.94 ZM 728.59 296.51 C729.46,299.97 728.60,300.61 727.20,297.54 C726.52,296.05 726.45,294.84 727.01,294.49 C727.52,294.18 728.23,295.08 728.59,296.51 ZM 752.00 360.69 C752.00,362.47 751.05,362.35 750.47,360.50 C748.93,355.58 748.93,355.42 750.50,357.44 C751.32,358.51 752.00,359.97 752.00,360.69 Z" fill="rgb(3,111,192)"/>
<path d="M 754.69 265.86 C754.17,265.51 754.10,264.61 754.53,263.86 C755.00,263.06 754.95,262.84 754.41,263.34 C753.88,263.83 752.82,261.94 751.87,258.84 C750.69,254.96 750.55,253.30 751.37,252.77 C751.69,252.56 751.88,252.40 751.93,252.28 C756.00,266.86 767.41,301.89 777.98,332.00 C781.94,343.27 785.97,354.98 786.94,358.00 C789.01,364.43 798.13,389.11 805.08,407.09 C807.76,414.01 811.57,424.36 813.56,430.09 C815.54,435.81 817.79,441.15 818.56,441.95 C819.60,443.02 823.60,443.55 833.74,443.95 L 847.50 444.50 L 847.50 464.50 L 830.75 464.77 C822.27,464.91 815.21,465.34 814.14,465.76 C813.20,465.10 813.27,464.45 814.30,463.79 C814.96,463.37 822.38,463.02 830.79,463.02 L 846.08 463.00 L 845.50 445.50 L 832.30 445.22 C819.53,444.95 819.04,444.86 817.11,442.42 C816.02,441.03 814.14,436.88 812.93,433.20 C811.72,429.51 810.41,426.05 810.00,425.50 C809.60,424.95 808.97,423.22 808.60,421.66 C808.07,419.47 807.52,418.98 806.21,419.54 C805.48,419.84 804.84,420.10 804.28,420.29 C804.29,420.28 804.30,420.26 804.31,420.25 C804.92,419.17 799.89,406.00 798.86,406.00 C797.63,406.00 797.80,412.55 799.14,417.08 C798.47,414.84 797.49,413.00 796.96,413.00 C796.43,413.00 796.00,411.44 796.00,409.53 C796.00,407.03 795.17,405.22 793.00,403.00 C790.32,400.26 789.58,398.29 789.73,394.26 C789.75,393.58 789.38,393.27 788.89,393.57 C788.40,393.87 788.00,393.65 788.00,393.07 C788.00,391.25 783.66,382.00 782.81,382.00 C782.76,382.00 782.72,382.00 782.67,382.00 C782.51,381.99 782.38,381.99 782.30,382.05 C781.86,382.36 782.65,384.40 787.51,397.00 L 787.51 397.01 L 788.38 399.25 C789.81,402.96 790.71,406.00 790.37,406.00 C790.03,406.00 790.22,406.56 790.78,407.25 C791.90,408.62 797.00,420.85 797.00,422.16 C797.00,424.86 780.18,431.91 771.98,433.44 C772.63,433.21 773.31,432.89 774.00,432.50 L 776.50 431.07 L 774.00 431.05 C771.70,431.03 769.52,431.44 768.36,432.00 C769.56,430.95 772.19,429.62 775.36,428.58 C776.75,428.13 777.06,427.41 776.55,425.74 C773.18,414.60 767.77,389.18 768.51,387.98 C768.85,387.44 768.71,387.00 768.20,387.00 C767.70,387.00 766.88,385.12 766.39,382.83 C765.52,378.78 763.00,376.24 763.00,379.42 C763.00,380.84 761.84,381.45 759.75,381.12 C758.30,380.89 759.04,383.77 762.85,393.14 C764.97,398.35 767.74,405.74 768.99,409.56 C770.25,413.38 771.87,417.67 772.59,419.11 C773.75,421.42 773.67,421.97 771.91,423.86 C769.50,426.46 766.83,426.60 764.80,424.25 C764.78,424.22 764.75,424.19 764.73,424.16 C766.20,425.05 769.84,424.51 771.36,423.02 C772.41,421.99 768.63,411.26 753.00,371.00 C744.82,349.92 743.66,346.81 740.86,338.50 C739.75,335.20 738.44,331.60 737.94,330.50 C737.45,329.40 735.86,325.12 734.42,321.00 C725.33,294.99 715.33,270.00 714.00,270.00 C713.89,270.00 713.79,270.05 713.72,270.14 C713.85,268.98 714.06,267.60 714.37,266.00 C714.63,264.62 714.88,263.22 714.93,262.88 C715.02,262.09 724.73,260.63 727.86,260.94 C729.19,261.07 729.96,260.75 729.62,260.20 C728.26,258.00 740.03,257.12 741.83,259.29 C743.18,260.92 744.81,268.14 745.15,274.00 C745.30,276.48 745.98,280.08 746.66,282.00 C747.35,283.92 747.93,287.35 747.96,289.60 C748.01,294.25 749.74,300.00 751.10,300.00 C751.59,300.00 752.00,300.87 752.00,301.94 C752.00,303.26 752.64,303.83 754.00,303.73 C756.55,303.53 756.52,302.88 753.48,293.93 C752.09,289.86 751.05,285.84 751.17,285.01 C751.28,284.18 750.68,281.02 749.82,278.00 C749.38,276.44 748.96,274.87 748.56,273.32 C750.14,278.99 752.38,286.06 755.27,294.50 C759.54,306.96 762.11,315.90 765.48,330.00 C767.01,336.39 772.89,348.91 779.70,360.25 C781.59,363.41 783.54,366.00 784.03,366.00 C784.52,366.00 783.31,361.61 781.36,356.25 C779.40,350.89 777.65,345.83 777.48,345.00 C777.30,344.17 777.06,343.39 776.95,343.25 C776.84,343.11 776.66,342.66 776.54,342.25 C776.43,341.84 775.87,340.38 775.30,339.00 C774.73,337.62 772.56,331.33 770.48,325.00 C768.40,318.67 766.15,312.15 765.47,310.50 C764.05,307.03 755.64,281.26 751.01,266.19 C749.04,259.81 747.39,256.04 746.67,256.28 C745.87,256.55 745.58,257.90 745.77,260.30 C745.66,259.47 745.60,258.80 745.60,258.33 C745.60,257.05 745.21,256.00 744.74,256.00 C744.27,256.00 744.12,255.62 744.41,255.15 C745.04,254.12 740.31,251.67 737.50,251.57 C736.38,251.53 735.50,252.15 735.50,252.98 C735.50,253.25 735.35,253.53 735.05,253.79 C735.08,253.76 735.09,253.73 735.09,253.70 C735.06,252.65 718.96,242.00 717.41,242.00 C716.81,242.00 716.32,242.32 715.92,243.07 C716.58,239.62 716.39,237.66 715.37,237.30 C714.33,236.94 713.22,240.59 712.43,247.00 C711.66,253.26 710.81,256.00 709.65,256.00 C709.56,256.00 709.39,255.92 709.15,255.77 C709.61,254.79 710.60,250.69 711.54,245.83 C712.62,240.23 713.96,235.51 714.51,235.32 C715.07,235.14 721.37,238.81 728.51,243.48 C740.75,251.47 746.00,253.65 746.00,250.73 C746.00,249.99 742.60,247.41 738.02,244.37 C741.69,246.58 744.56,248.29 745.32,248.71 C746.59,249.43 747.58,251.05 747.70,252.63 C747.81,254.11 748.33,255.59 748.85,255.91 C749.37,256.24 750.55,259.20 751.47,262.50 C753.97,271.49 754.17,271.87 754.96,269.00 C755.33,267.62 755.21,266.21 754.69,265.86 ZM 847.39 506.25 L 847.58 511.00 L 407.89 511.00 L 408.20 506.25 L 408.50 501.50 L 847.20 501.50 ZM 561.75 485.31 C558.52,484.79 558.44,484.08 560.45,473.86 C561.24,469.81 563.31,458.40 565.04,448.50 C566.78,438.60 568.40,430.16 568.66,429.75 C569.49,428.40 589.01,428.86 589.51,430.25 C589.76,430.94 591.59,440.72 593.57,452.00 C595.56,463.27 597.68,472.80 598.29,473.18 C598.90,473.55 600.20,473.43 601.18,472.91 C602.79,472.04 602.99,469.91 603.23,450.73 L 603.50 429.50 L 636.50 429.50 L 636.77 456.93 C636.97,478.21 636.75,484.54 635.77,485.17 C633.95,486.32 625.21,486.18 622.93,484.96 C621.12,483.99 621.00,482.67 621.00,463.26 C621.00,449.93 620.66,442.94 620.03,443.57 C619.50,444.10 618.99,451.50 618.89,460.02 C618.63,484.12 617.81,485.13 597.84,485.72 C583.08,486.16 582.00,485.76 582.00,479.88 C582.00,476.24 581.82,476.00 579.01,476.00 C576.30,476.00 575.96,476.37 575.38,480.02 C575.03,482.23 574.43,484.24 574.05,484.47 C572.86,485.20 564.62,485.77 561.75,485.31 ZM 578.09 288.45 C579.66,287.64 582.64,285.82 584.72,284.40 C586.80,282.98 592.55,279.59 597.50,276.87 C602.45,274.14 607.17,271.51 608.00,271.01 C610.60,269.45 636.34,257.27 640.00,255.87 C641.92,255.13 644.10,254.66 644.82,254.83 C645.11,254.89 645.46,254.89 645.81,254.83 C628.19,262.82 599.70,277.39 586.58,285.36 L 575.67 292.00 L 541.00 292.00 L 541.00 146.05 L 557.27 145.77 L 573.53 145.50 L 556.16 129.00 C546.61,119.93 538.35,112.34 537.81,112.14 C537.18,111.90 536.93,142.24 537.11,198.64 L 537.40 285.50 L 535.20 286.49 C533.18,287.40 533.00,288.18 533.00,296.24 C533.00,301.41 532.59,305.00 532.00,305.00 C531.41,305.00 531.00,301.41 531.00,296.24 C531.00,288.11 530.84,287.40 528.75,286.49 L 526.50 285.50 L 525.99 90.50 L 531.25 88.16 C534.14,86.87 537.87,85.59 539.55,85.31 C539.84,85.26 540.11,85.22 540.39,85.20 C543.16,85.00 546.13,87.50 579.70,115.74 L 579.78 115.81 C588.73,123.34 598.63,131.65 601.78,134.28 C604.92,136.91 608.61,140.17 609.98,141.53 L 612.45 144.00 L 606.56 144.00 C600.91,144.00 599.92,143.58 583.58,134.14 C574.19,128.71 564.81,123.27 562.75,122.04 C560.02,120.41 558.91,120.10 559.25,120.92 C558.46,119.84 558.14,119.08 558.30,118.67 C558.67,117.69 557.44,116.22 554.68,114.36 C552.38,112.81 547.67,109.28 544.21,106.52 C539.31,102.61 538.19,101.37 538.33,99.49 C538.57,99.74 539.00,100.12 539.62,100.66 C545.23,105.53 554.73,112.58 559.76,115.62 C562.84,117.47 565.52,118.82 565.72,118.62 C565.92,118.41 564.44,115.45 562.44,112.03 C558.54,105.38 556.26,103.87 546.50,101.45 C543.75,100.77 540.60,99.90 539.50,99.52 C538.98,99.33 538.60,99.20 538.37,99.15 C538.38,99.06 538.39,98.96 538.41,98.87 C538.84,96.59 538.50,96.15 535.95,95.64 C534.23,95.30 533.00,94.41 533.00,93.53 C533.00,92.69 532.52,92.00 531.94,92.00 C531.36,92.00 531.16,91.55 531.50,91.00 C532.20,89.87 530.94,89.70 528.58,90.61 C527.33,91.09 527.00,92.83 527.00,99.07 C527.00,106.75 527.05,106.92 529.20,106.12 C530.94,105.48 531.88,105.90 533.78,108.16 C535.10,109.72 536.84,111.00 537.65,111.00 C539.84,111.00 574.00,143.60 574.00,145.68 C574.00,147.21 573.71,147.24 556.33,147.39 C549.09,147.45 542.90,147.77 542.57,148.10 C541.48,149.18 540.70,229.84 541.47,260.22 L 542.23 289.94 L 555.36 290.22 C571.47,290.56 574.46,290.33 578.09,288.45 ZM 471.08 312.94 C470.83,312.81 470.70,312.66 470.64,312.50 C470.14,311.21 472.35,310.99 486.78,310.91 C500.59,310.84 532.02,310.43 555.50,310.01 C558.25,309.96 561.62,310.02 563.00,310.15 C570.85,310.88 627.00,309.88 627.00,309.00 C627.00,308.34 600.53,308.00 549.58,308.00 C507.00,308.00 471.45,307.73 470.58,307.39 C469.34,306.92 469.00,305.22 469.00,299.43 C469.00,293.03 469.27,291.93 471.05,290.97 C472.18,290.37 474.10,289.95 475.30,290.05 C476.51,290.14 487.51,290.17 499.75,290.11 L 522.00 290.00 L 522.00 219.11 C522.00,155.38 521.84,148.15 520.42,147.61 C518.34,146.81 463.60,146.84 458.75,147.64 L 455.00 148.26 L 455.00 375.00 L 573.94 375.00 C658.51,375.00 693.08,375.31 693.55,376.09 C695.62,379.43 693.23,379.50 572.20,379.51 C466.91,379.52 452.50,379.70 452.50,381.01 C452.50,382.32 466.56,382.52 568.50,382.69 L 684.50 382.88 L 685.35 385.19 C686.06,387.11 684.93,389.40 678.60,398.86 C674.42,405.11 671.00,410.62 671.00,411.11 C671.00,412.14 672.95,412.30 682.19,412.02 C692.34,411.72 694.45,413.05 692.39,418.42 C691.84,419.85 680.21,420.00 571.14,420.03 C463.96,420.06 450.72,420.23 452.47,421.56 C453.94,422.67 455.87,422.89 459.97,422.43 C466.27,421.73 493.27,421.37 503.00,421.85 C512.93,422.35 514.42,423.11 508.50,424.64 C505.26,425.48 504.73,425.78 507.00,425.48 C509.77,425.13 510.13,425.25 508.73,426.08 C507.75,426.65 505.05,427.04 502.73,426.93 C500.40,426.82 488.71,426.80 476.75,426.87 L 455.00 427.00 L 455.00 455.89 C455.00,480.80 454.82,484.70 453.50,485.36 L 454.00 455.54 L 454.50 425.59 L 457.00 424.89 C458.82,424.39 458.07,424.17 454.25,424.10 C449.21,424.00 449.00,423.89 449.00,421.25 L 449.00 418.50 L 564.25 418.78 C627.64,418.94 682.31,418.79 685.75,418.45 C691.03,417.94 692.00,417.54 692.00,415.92 C692.00,414.13 691.17,414.00 679.89,414.00 C669.55,414.00 667.87,413.78 668.36,412.50 C668.68,411.68 672.33,405.81 676.47,399.45 C680.61,393.10 684.00,387.25 684.00,386.45 C684.00,385.19 668.83,384.98 569.75,384.88 C506.91,384.82 454.15,384.48 452.50,384.13 C450.17,383.63 449.43,382.88 449.18,380.75 L 448.87 378.00 L 571.18 377.76 L 693.50 377.51 L 454.50 376.50 L 454.25 261.25 L 453.99 146.00 L 524.00 146.00 L 524.00 292.00 L 471.00 292.00 L 471.00 307.05 L 501.25 307.00 C517.89,306.97 553.44,306.96 580.25,306.97 L 629.00 307.00 L 629.00 312.00 L 550.00 312.00 C499.63,312.00 472.72,312.32 471.08,312.94 ZM 721.00 178.00 C721.00,202.98 720.73,209.98 719.75,209.92 C719.06,209.88 707.70,202.69 694.50,193.96 C681.30,185.22 667.80,176.39 664.50,174.34 C656.16,169.14 623.71,147.87 622.55,146.84 C622.03,146.38 643.97,146.00 671.30,146.00 L 721.00 146.00 ZM 845.13 503.00 L 820.81 502.86 C754.96,502.48 433.88,502.46 422.75,502.83 L 410.00 503.27 L 410.00 506.06 C410.00,507.88 410.61,509.01 411.75,509.31 C412.71,509.56 510.48,509.71 629.00,509.64 L 844.50 509.50 ZM 503.00 485.18 C494.36,481.26 492.99,477.38 493.02,456.73 C493.04,442.89 493.33,439.88 494.96,436.27 C497.70,430.24 501.84,428.01 510.28,428.00 C518.35,428.00 522.64,429.59 526.30,433.94 C528.71,436.81 529.01,436.93 529.12,435.08 C529.19,433.93 529.36,432.55 529.50,432.00 C529.64,431.45 529.81,430.54 529.88,429.98 C529.96,429.31 535.87,429.05 546.75,429.23 L 563.50 429.50 L 563.83 432.41 C564.01,434.01 563.88,436.82 563.54,438.66 C562.95,441.78 562.65,442.00 558.95,442.00 L 555.00 442.00 L 555.00 463.38 C555.00,484.71 554.99,484.77 552.75,485.37 C549.34,486.28 543.44,486.12 540.57,485.02 L 538.00 484.05 L 538.00 442.00 L 534.00 442.00 C530.54,442.00 529.99,442.31 529.92,444.25 C529.87,445.49 529.76,448.30 529.67,450.50 L 529.50 454.50 L 514.50 454.50 L 514.24 451.00 C513.71,443.91 512.90,441.00 511.45,441.00 C510.24,441.00 510.00,443.67 510.00,457.00 C510.00,470.56 510.23,473.00 511.50,473.00 C512.95,473.00 513.46,470.49 513.05,465.32 C512.81,462.37 515.72,461.00 522.23,461.00 C528.54,461.00 530.01,462.13 529.98,466.95 C529.91,476.52 526.12,482.75 519.08,484.86 C514.96,486.09 505.43,486.28 503.00,485.18 ZM 719.00 178.04 C719.00,149.70 718.95,149.05 716.92,147.95 C714.79,146.82 656.77,146.65 637.31,147.72 L 628.12 148.23 L 630.81 150.40 C633.52,152.58 647.15,161.66 661.00,170.51 C665.12,173.15 673.45,178.54 679.50,182.50 C685.55,186.46 693.02,191.34 696.11,193.35 C699.19,195.36 702.87,198.08 704.29,199.40 C705.71,200.71 707.08,201.59 707.32,201.34 C707.57,201.10 709.74,202.25 712.14,203.92 C714.54,205.58 717.06,206.95 717.75,206.97 C718.72,206.99 719.00,200.56 719.00,178.04 ZM 784.71 563.75 L 779.57 579.00 L 766.00 579.00 L 766.00 521.00 L 780.00 521.00 L 780.00 533.67 C780.00,540.63 780.32,546.01 780.72,545.62 C781.11,545.22 783.28,539.63 785.54,533.20 L 789.65 521.50 L 796.82 521.21 L 804.00 520.91 L 804.00 579.00 L 790.00 579.00 L 789.93 563.75 L 789.85 548.50 ZM 846.00 579.08 L 830.50 578.50 L 830.80 574.50 C830.96,572.30 830.81,567.24 830.46,563.25 C829.87,556.46 829.68,556.00 827.45,556.00 C823.93,556.00 823.00,558.80 823.00,569.43 L 823.00 579.00 L 809.00 579.00 L 809.00 568.75 C809.01,557.56 810.69,552.79 815.23,551.11 C817.40,550.31 817.37,550.24 814.37,548.69 C810.60,546.74 808.79,542.69 808.84,536.28 C808.89,530.39 810.04,527.19 813.14,524.32 C817.41,520.37 820.63,519.77 833.75,520.51 L 846.00 521.20 L 846.00 579.08 ZM 698.88 578.25 C698.95,578.66 695.62,579.00 691.50,579.00 L 684.00 579.00 L 684.00 521.00 L 691.47 521.00 C697.76,521.00 698.84,521.24 698.35,522.53 C698.03,523.37 698.09,528.77 698.48,534.53 C699.09,543.45 699.45,545.00 700.90,545.00 C704.33,545.00 705.00,542.87 705.00,531.86 C705.00,525.95 705.34,520.96 705.75,520.77 C706.16,520.57 709.47,520.58 713.09,520.78 L 719.68 521.16 L 719.41 530.83 C719.11,541.42 718.31,544.53 715.11,547.41 L 713.00 549.31 L 715.11 550.79 C718.69,553.30 720.00,558.17 720.00,568.97 L 720.00 579.00 L 705.00 579.00 L 705.00 568.65 C705.00,559.90 704.72,558.06 703.17,556.65 C699.51,553.35 699.01,554.48 698.88,566.25 C698.82,572.44 698.82,577.84 698.88,578.25 ZM 621.00 559.00 L 621.00 579.00 L 606.00 579.00 L 606.00 521.00 L 619.75 521.01 C628.64,521.02 634.38,521.47 636.00,522.27 C642.74,525.61 645.53,542.94 640.72,551.50 C638.92,554.69 637.45,555.85 633.48,557.21 C630.74,558.14 626.81,558.93 624.75,558.96 ZM 643.73 485.23 L 640.97 484.86 L 641.50 429.50 L 656.50 429.50 L 657.07 446.75 L 663.23 447.45 C668.57,448.05 669.88,448.64 673.19,451.95 L 677.00 455.76 L 677.00 465.13 C677.00,481.43 673.45,484.90 656.33,485.34 C650.92,485.48 645.26,485.43 643.73,485.23 ZM 821.15 567.60 C821.53,557.38 823.11,554.00 827.53,554.00 C831.14,554.00 831.91,556.06 832.21,566.56 L 832.50 576.50 L 843.50 576.50 L 843.77 559.25 C843.94,548.88 844.44,542.00 845.02,542.00 C845.56,542.00 846.00,540.88 846.00,539.50 C846.00,538.12 845.55,537.00 845.00,537.00 C844.42,537.00 844.00,533.83 844.00,529.50 L 844.00 522.00 L 817.76 522.00 L 813.88 525.88 C810.28,529.48 810.00,530.18 810.00,535.45 C810.00,541.88 811.04,544.53 814.82,547.71 L 817.44 549.93 L 814.84 552.71 C810.67,557.18 810.00,559.37 810.00,568.43 L 810.00 577.00 L 820.81 577.00 ZM 779.27 573.75 C780.09,571.96 782.46,565.21 784.52,558.75 C786.59,552.29 788.64,547.00 789.07,547.00 C790.72,547.00 791.37,551.85 791.14,562.31 C790.83,576.70 790.95,577.00 797.07,577.00 L 802.00 577.00 L 802.00 522.00 L 797.02 522.00 C791.00,522.00 790.83,522.22 785.44,537.25 C782.49,545.48 781.16,548.00 779.79,548.00 C778.16,548.00 778.00,546.83 778.00,535.00 L 778.00 522.00 L 767.00 522.00 L 767.00 577.00 L 772.39 577.00 C777.49,577.00 777.85,576.83 779.27,573.75 ZM 558.24 577.31 C553.60,579.99 544.56,580.44 539.10,578.26 C530.44,574.80 529.27,570.55 530.00,545.33 C530.48,528.73 530.58,528.07 533.00,525.45 C536.58,521.58 541.01,520.00 548.32,520.00 C559.30,520.00 565.00,525.89 565.00,537.25 L 565.00 543.00 L 551.10 543.00 L 550.80 537.25 C550.53,532.01 550.28,531.47 548.06,531.16 C543.67,530.54 543.00,532.98 543.00,549.58 C543.00,562.86 543.23,565.07 544.84,567.06 C548.21,571.21 552.00,567.17 552.00,559.43 L 552.00 556.00 L 565.00 556.00 L 565.00 562.25 C565.00,569.80 562.81,574.68 558.24,577.31 ZM 600.00 479.50 L 600.00 484.00 L 605.58 484.00 C610.41,484.00 611.54,483.61 614.08,481.08 L 617.00 478.15 L 617.00 440.00 L 623.00 440.00 L 623.00 484.00 L 636.00 484.00 L 636.00 431.00 L 620.25 431.00 L 604.50 431.00 L 604.83 450.92 C605.16,471.15 604.62,475.00 601.46,475.00 C600.40,475.00 600.00,476.21 600.00,479.50 ZM 562.51 472.25 L 560.32 484.00 L 573.89 484.00 L 574.50 475.50 L 578.99 475.50 C582.71,475.50 583.52,475.84 583.78,477.50 C584.28,480.81 584.47,482.44 585.39,483.24 C586.28,484.00 587.83,484.00 590.96,484.00 C591.14,484.00 591.33,484.00 591.52,484.00 C595.08,484.00 597.99,483.89 597.98,483.75 C597.98,483.61 596.39,475.17 594.46,465.00 C592.53,454.83 590.43,443.01 589.77,438.75 L 588.59 431.00 L 579.32 431.00 C570.50,431.00 570.02,431.11 569.58,433.25 C569.33,434.49 568.13,441.12 566.91,448.00 C565.70,454.88 563.72,465.79 562.51,472.25 ZM 643.00 431.00 L 643.00 484.00 L 653.75 483.94 C671.47,483.85 674.73,481.58 675.71,468.69 C676.78,454.48 672.70,449.00 661.03,449.00 L 656.00 449.00 L 656.00 431.00 ZM 619.00 568.12 C619.00,557.73 619.57,556.91 627.16,556.31 C637.76,555.47 641.00,551.54 641.00,539.50 C641.00,531.50 639.82,527.96 636.00,524.50 C634.08,522.76 632.09,522.45 620.90,522.15 L 608.00 521.80 L 608.00 577.00 L 619.00 577.00 ZM 504.68 483.60 C508.85,485.14 516.82,484.69 520.91,482.68 C525.25,480.55 527.37,476.50 527.82,469.49 L 528.23 463.00 L 521.76 463.00 C515.53,463.00 515.29,463.09 515.72,465.30 C516.50,469.38 514.61,474.47 512.19,474.82 C508.88,475.30 508.00,471.58 508.00,457.00 C508.00,442.81 508.85,439.00 512.01,439.00 C514.51,439.00 514.83,439.85 515.20,447.50 L 515.50 453.50 L 521.75 453.80 L 528.00 454.10 L 528.00 447.02 C528.00,439.23 526.23,433.73 523.21,432.11 C515.56,428.02 504.39,428.70 499.06,433.58 L 495.50 436.84 L 495.19 455.06 C494.79,477.77 495.62,480.25 504.68,483.60 ZM 697.07 552.80 L 699.78 553.46 C705.12,554.77 706.23,556.97 706.77,567.41 L 707.27 577.00 L 718.18 577.00 L 717.84 566.49 C717.51,556.29 717.41,555.90 714.63,553.68 L 711.76 551.40 L 714.53 545.95 C717.40,540.29 718.92,529.78 717.61,524.58 C717.02,522.25 716.49,522.00 712.11,522.00 C707.47,522.00 707.22,522.14 706.63,525.10 C706.29,526.81 706.27,528.62 706.58,529.13 C707.61,530.79 705.79,543.06 704.30,544.56 C703.49,545.36 701.52,545.92 699.92,545.80 L 697.00 545.57 L 697.00 522.00 L 686.20 522.00 L 685.48 528.16 C685.09,531.55 685.09,543.94 685.50,555.71 L 686.22 577.10 L 691.36 576.80 L 696.50 576.50 ZM 776.27 417.25 C778.04,424.26 779.86,430.00 780.31,430.00 C781.42,430.00 796.00,423.24 796.00,422.72 C796.00,422.50 793.35,415.61 790.11,407.41 C786.88,399.21 781.21,384.17 777.52,374.00 C771.21,356.58 761.73,336.34 758.32,333.00 C756.95,331.66 756.84,331.72 757.32,333.50 C757.61,334.60 759.25,342.02 760.97,350.00 C768.53,385.15 771.83,399.66 776.27,417.25 ZM 554.19 576.97 C556.21,576.40 559.03,574.57 560.44,572.89 C562.56,570.37 563.00,568.82 563.00,563.92 L 563.00 558.00 L 553.00 558.00 L 553.00 562.43 C553.00,567.64 551.11,570.00 546.95,570.00 C541.42,570.00 540.79,567.42 541.48,547.85 C542.12,529.96 542.36,529.05 546.56,529.02 C550.09,528.99 552.29,531.45 552.91,536.11 C553.46,540.21 553.73,540.54 557.00,541.06 C562.50,541.94 563.90,540.77 563.33,535.76 C562.59,529.32 561.30,526.73 557.54,524.16 C550.80,519.56 539.70,520.57 534.22,526.29 L 531.50 529.13 L 531.19 547.81 C530.90,565.68 530.98,566.70 533.19,570.99 C535.06,574.63 536.26,575.71 539.50,576.66 C544.58,578.17 549.50,578.27 554.19,576.97 ZM 540.00 441.11 L 540.00 484.00 L 554.00 484.00 L 554.00 441.00 L 562.00 441.00 L 562.00 431.00 L 530.89 431.00 L 531.20 435.75 L 531.50 440.50 ZM 744.63 308.63 C743.22,306.23 742.39,303.91 742.79,303.47 C742.84,303.41 742.88,303.36 742.91,303.31 C743.80,304.58 744.52,305.64 745.03,306.44 C747.45,310.17 749.60,312.71 749.81,312.08 C750.02,311.45 748.99,303.87 747.54,295.22 C746.08,286.57 744.20,275.41 743.36,270.42 C742.51,265.42 741.44,260.72 740.98,259.96 C740.27,258.82 738.11,259.05 728.36,261.30 C721.89,262.79 716.15,264.45 715.61,264.99 C714.97,265.63 715.33,266.75 716.67,268.24 C719.94,271.86 735.95,293.33 742.80,303.14 C742.67,303.18 742.49,303.26 742.25,303.40 C741.56,303.79 741.00,303.61 741.00,303.00 C741.00,302.39 740.55,302.16 740.00,302.50 C738.47,303.44 738.74,304.26 742.09,308.80 C746.14,314.32 747.89,314.20 744.63,308.63 ZM 648.00 171.57 C648.00,170.35 612.83,147.89 611.37,148.17 C610.43,148.35 609.46,149.13 609.20,149.89 C609.09,150.24 609.07,150.49 609.13,150.64 C605.70,148.74 603.40,147.65 602.26,147.37 C599.51,146.70 599.51,146.71 601.38,148.82 C601.66,149.13 601.98,149.45 602.34,149.75 C601.21,149.15 600.00,148.49 599.00,147.93 C596.88,146.76 594.17,146.07 592.28,146.01 C598.35,145.45 615.51,146.04 615.86,147.08 C616.06,147.69 626.64,155.04 639.36,163.41 C696.67,201.13 709.05,209.04 718.96,214.28 L 728.00 219.06 L 728.00 225.17 C728.00,225.42 728.00,225.66 728.00,225.89 C727.99,228.05 727.99,229.44 728.49,230.62 C729.46,232.92 732.33,234.42 740.77,239.15 C748.02,243.21 750.16,244.91 750.57,246.92 C750.80,248.07 751.25,249.83 751.89,252.11 C751.79,252.05 751.58,252.02 751.26,252.02 C750.58,252.01 749.39,250.48 748.62,248.63 C747.03,244.82 743.47,241.94 733.81,236.64 C729.39,234.22 726.02,231.47 724.29,228.99 C724.43,228.94 724.54,228.52 724.73,227.75 C724.96,226.79 724.96,225.21 724.73,224.25 C724.69,224.07 724.65,223.92 724.61,223.78 C724.91,224.03 725.18,224.51 725.33,225.24 C725.59,226.48 725.73,225.71 725.65,223.52 C725.50,219.67 725.28,219.42 718.00,215.28 C713.88,212.94 710.95,210.97 711.50,210.91 C712.05,210.85 710.93,210.43 709.01,209.97 C707.09,209.52 705.36,209.31 705.17,209.49 C704.79,209.87 706.87,211.95 712.33,216.66 C715.13,219.08 716.18,221.21 715.86,222.49 C715.91,222.24 715.90,221.95 715.82,221.63 C715.65,220.87 711.67,217.34 707.00,213.79 C699.19,207.86 691.89,203.02 648.50,175.00 C630.06,163.10 617.00,155.01 609.38,150.78 C609.50,150.77 609.66,150.71 609.85,150.59 C610.80,150.00 621.00,155.78 630.21,162.13 C631.70,163.16 633.19,164.00 633.53,164.00 C633.86,164.00 635.61,165.12 637.41,166.50 C639.21,167.88 641.15,169.00 641.72,169.00 C642.29,169.00 643.32,169.68 644.00,170.50 C645.13,171.86 648.00,172.62 648.00,171.57 ZM 759.45 374.75 C759.83,375.99 760.55,377.00 761.07,377.00 C761.17,377.00 761.27,377.01 761.35,377.02 C761.50,377.04 761.63,377.05 761.71,377.00 C762.09,376.78 761.78,375.37 760.14,367.79 C759.92,366.79 759.68,365.68 759.42,364.45 C758.00,357.88 755.50,346.01 753.86,338.08 C752.23,330.15 750.48,322.90 749.98,321.97 C749.49,321.05 745.42,315.16 740.95,308.89 C736.48,302.63 732.17,296.26 731.38,294.75 C729.36,290.88 727.72,291.31 729.49,295.25 C730.29,297.04 735.27,310.20 740.54,324.50 C745.82,338.80 752.08,355.45 754.45,361.50 C756.83,367.55 759.08,373.51 759.45,374.75 ZM 534.80 283.80 C535.46,283.14 536.00,281.76 536.00,280.73 C536.00,279.32 535.51,279.02 534.00,279.50 C532.69,279.91 531.83,279.63 531.42,278.64 C531.66,278.87 531.90,279.00 532.11,279.00 C533.10,279.00 533.38,111.15 532.39,108.58 C532.06,107.71 531.42,107.00 530.96,107.00 C530.01,107.00 529.63,274.86 530.58,277.34 C530.63,277.47 530.68,277.59 530.74,277.70 C530.23,277.28 529.55,277.00 528.89,277.00 C527.49,277.00 527.00,277.72 527.00,279.80 C527.00,283.13 528.62,285.00 531.50,285.00 C532.66,285.00 534.14,284.46 534.80,283.80 ZM 462.60 567.83 C461.30,565.98 461.00,562.64 461.01,550.03 C461.03,531.70 461.74,529.31 467.01,529.84 C468.88,530.03 470.98,530.93 471.67,531.84 C473.43,534.16 473.47,563.52 471.71,567.00 C469.95,570.50 464.80,570.97 462.60,567.83 ZM 563.92 410.75 L 565.93 414.00 L 532.80 414.00 L 534.89 410.75 C536.03,408.96 539.56,403.34 542.73,398.26 C545.91,393.18 548.95,389.17 549.50,389.34 C550.34,389.62 556.51,398.77 563.92,410.75 ZM 514.71 409.25 L 518.01 414.00 L 485.10 414.00 L 492.80 401.54 C497.04,394.69 500.79,389.06 501.15,389.04 C501.50,389.02 503.95,392.49 506.60,396.75 C509.24,401.01 512.89,406.64 514.71,409.25 ZM 534.33 399.75 C530.15,406.21 526.38,411.89 525.94,412.38 C525.33,413.05 516.55,400.59 509.64,389.25 C509.05,388.27 512.45,388.00 525.41,388.00 L 541.93 388.00 ZM 613.00 413.37 C613.00,413.72 605.77,414.00 596.94,414.00 C584.36,414.00 581.05,413.73 581.64,412.75 C584.56,407.89 597.09,389.00 597.38,389.00 C597.89,389.00 613.00,412.58 613.00,413.37 ZM 652.66 401.52 L 660.82 414.00 L 644.83 414.00 C635.07,414.00 628.96,413.63 629.17,413.04 C629.79,411.24 643.50,389.08 644.00,389.06 C644.28,389.05 648.17,394.66 652.66,401.52 ZM 636.69 388.36 C636.92,388.59 633.50,394.27 629.09,400.99 L 621.07 413.21 L 613.06 400.85 L 605.06 388.50 L 620.67 388.22 C629.26,388.07 636.47,388.13 636.69,388.36 ZM 582.29 400.00 C578.22,406.32 574.56,411.84 574.14,412.26 C573.73,412.67 569.90,407.56 565.64,400.90 C561.38,394.23 558.08,388.59 558.30,388.36 C558.53,388.13 565.68,388.07 574.19,388.22 L 589.67 388.50 ZM 490.38 393.75 C488.36,396.91 484.81,402.32 482.50,405.77 L 478.29 412.04 L 470.72 400.02 L 463.14 388.00 L 494.06 388.00 ZM 422.00 566.58 C422.00,560.85 422.27,555.45 422.61,554.58 C423.43,552.43 425.62,552.60 429.10,555.07 C431.97,557.11 432.00,557.25 432.00,567.07 L 432.00 577.00 L 443.18 577.00 L 442.84 565.94 C442.52,555.51 442.36,554.77 440.00,552.98 C437.86,551.35 437.68,550.83 438.77,549.29 C438.83,549.21 438.89,549.13 438.94,549.05 C439.10,549.71 439.92,550.74 441.28,551.96 L 444.50 554.83 L 444.83 566.92 L 445.17 579.00 L 431.23 579.00 L 430.84 568.63 C430.44,557.81 429.42,555.00 425.88,555.00 C424.15,555.00 424.00,555.93 424.00,567.00 L 424.00 579.00 L 410.00 579.00 L 410.00 550.06 C410.00,534.14 410.34,520.96 410.75,520.76 C411.16,520.56 414.31,520.57 417.75,520.79 L 424.00 521.18 L 424.00 532.62 C424.00,541.53 424.21,543.82 425.33,544.54 C422.57,543.63 421.60,539.84 422.54,533.56 C422.92,531.06 422.93,527.44 422.57,525.51 C421.92,522.06 421.83,522.00 416.95,522.00 L 412.00 522.00 L 412.00 577.00 L 422.00 577.00 ZM 464.57 567.43 C466.59,569.45 468.40,569.42 470.13,567.35 C471.79,565.35 472.68,540.40 471.28,534.99 C470.30,531.20 467.12,529.83 464.44,532.05 C462.23,533.88 462.34,565.20 464.57,567.43 ZM 667.83 575.25 C668.33,574.29 669.30,571.03 670.00,568.00 C670.69,564.97 671.90,561.76 672.69,560.85 C673.58,559.83 673.73,559.07 673.07,558.85 C672.41,558.63 673.29,552.86 675.51,543.00 C677.42,534.47 678.99,526.24 678.99,524.70 C679.00,521.98 678.85,521.90 674.33,522.20 L 669.65 522.50 L 667.40 531.50 C666.15,536.45 665.11,541.51 665.07,542.75 C665.03,543.99 664.59,545.00 664.10,545.00 C664.08,545.00 664.07,545.00 664.05,545.00 C664.51,544.89 665.14,542.35 665.47,539.25 C665.81,536.09 666.56,530.69 667.15,527.25 L 668.23 521.00 L 675.11 521.00 C678.90,521.00 682.00,521.18 682.00,521.40 C682.00,521.61 679.69,532.08 676.87,544.65 C674.05,557.22 671.23,569.97 670.62,573.00 L 669.50 578.50 L 658.69 578.78 L 647.89 579.07 L 648.19 574.28 C648.49,569.72 648.64,569.49 651.68,569.19 C655.89,568.78 657.18,567.09 656.08,563.42 C653.17,553.71 644.00,521.87 644.00,521.48 C644.00,521.21 647.10,521.00 650.88,521.00 L 657.76 521.00 L 659.38 527.46 C660.27,531.01 661.00,534.99 661.00,536.31 C661.00,537.90 661.52,540.16 662.17,541.98 C661.52,540.29 661.00,538.27 661.00,536.93 C661.00,535.96 660.61,535.02 660.13,534.83 C659.65,534.65 658.59,531.80 657.78,528.50 L 656.31 522.50 L 651.15 522.20 C647.75,522.00 646.00,522.29 646.00,523.05 C646.00,524.19 648.28,532.06 654.24,551.50 C655.93,557.00 657.36,563.30 657.41,565.50 C657.49,569.15 657.26,569.53 654.75,569.82 C651.82,570.15 649.49,573.23 650.39,575.58 C650.80,576.64 652.94,577.00 658.93,577.00 C665.54,577.00 667.09,576.70 667.83,575.25 ZM 673.08 398.74 C669.46,404.36 666.21,408.98 665.86,408.99 C665.51,408.99 662.25,404.39 658.62,398.75 L 652.02 388.50 L 659.01 388.21 C662.86,388.04 669.07,388.04 672.83,388.21 L 679.66 388.50 ZM 561.63 411.71 C562.54,410.79 550.11,391.79 548.88,392.22 C547.13,392.81 536.12,411.45 537.14,412.09 C538.35,412.84 560.84,412.49 561.63,411.71 ZM 501.50 553.50 L 511.50 553.50 L 511.75 563.00 C511.98,572.00 512.06,575.21 513.64,576.36 C514.52,577.00 515.86,577.00 517.95,577.00 L 523.00 577.00 L 523.00 571.00 C523.00,567.70 523.34,565.00 523.75,565.00 C524.06,565.00 524.27,555.85 524.32,545.66 L 524.40 551.25 L 524.77 579.00 L 511.00 579.00 L 511.00 555.00 L 503.00 555.00 L 503.00 579.00 L 489.00 579.00 L 489.00 521.00 L 503.00 521.00 L 503.00 543.98 L 501.00 544.11 L 501.00 522.00 L 490.00 522.00 L 490.00 548.83 C490.00,563.59 490.30,575.97 490.67,576.33 C491.03,576.70 493.49,577.00 496.13,577.00 L 500.94 577.00 ZM 608.18 412.00 C609.25,412.00 609.84,411.54 609.49,410.98 C609.14,410.42 608.56,410.16 608.18,410.39 C607.81,410.62 607.44,409.76 607.36,408.49 C607.23,406.38 598.19,392.00 597.00,392.02 C595.89,392.04 585.30,409.59 585.73,410.71 C586.19,411.93 597.72,412.99 603.38,412.33 C604.96,412.15 607.12,412.00 608.18,412.00 ZM 513.42 410.75 C513.03,410.06 510.21,405.56 507.15,400.74 C504.13,395.97 502.67,393.39 501.15,393.35 C499.55,393.30 497.88,396.02 494.25,401.89 C493.89,402.48 493.50,403.10 493.10,403.75 L 487.99 412.00 L 501.05 412.00 C511.21,412.00 513.96,411.72 513.42,410.75 ZM 645.50 412.00 C655.16,411.96 656.59,411.33 654.76,407.92 C652.53,403.79 644.56,392.00 644.02,392.04 C643.51,392.07 641.46,395.20 635.04,405.73 C631.69,411.23 631.80,413.56 635.36,412.60 C636.54,412.29 641.10,412.01 645.50,412.00 ZM 579.60 401.29 C582.69,396.51 585.44,392.01 585.72,391.29 C586.11,390.28 583.50,390.00 573.54,390.00 L 560.87 390.00 L 563.17 394.25 C564.44,396.59 566.38,399.68 567.49,401.12 C568.59,402.57 570.27,405.15 571.20,406.87 C572.14,408.59 573.15,410.00 573.45,410.00 C573.74,410.00 576.52,406.08 579.60,401.29 ZM 628.15 399.61 L 634.04 390.50 L 622.83 390.22 C616.67,390.06 611.02,390.16 610.28,390.45 C609.22,390.85 609.36,391.78 610.96,394.91 C612.07,397.09 614.05,400.04 615.38,401.46 C616.70,402.89 618.33,405.39 619.01,407.01 C619.68,408.64 620.69,409.69 621.24,409.35 C621.80,409.01 624.90,404.63 628.15,399.61 ZM 531.55 400.82 C534.44,396.32 536.57,392.04 536.29,391.31 C535.52,389.29 515.15,389.45 514.37,391.48 C513.54,393.63 524.48,410.85 525.82,409.52 C526.09,409.24 528.67,405.33 531.55,400.82 ZM 763.89 369.78 C764.44,368.27 764.25,367.10 763.27,366.12 C762.47,365.33 762.03,363.61 762.28,362.31 C762.53,361.00 762.47,360.19 762.15,360.51 C761.25,361.42 757.94,344.81 758.57,342.52 C758.96,341.11 758.86,340.90 758.21,341.82 C757.58,342.72 756.99,341.25 756.33,337.12 C755.74,333.45 755.72,331.33 756.29,331.68 C756.80,332.00 757.52,331.78 757.87,331.20 C758.23,330.62 760.07,332.82 761.96,336.08 C765.32,341.87 768.07,342.94 766.07,337.67 C765.51,336.21 765.33,334.29 765.67,333.41 C766.01,332.52 765.75,331.46 765.09,331.05 C764.42,330.64 763.04,327.05 762.02,323.06 C760.06,315.46 758.27,312.00 759.40,318.00 C760.54,324.03 760.53,325.29 759.37,325.69 C758.18,326.11 754.00,319.79 754.00,317.57 C754.00,316.84 753.38,315.73 752.63,315.11 C750.55,313.38 748.16,316.54 749.81,318.83 C751.39,321.02 751.47,321.26 753.43,330.00 C754.35,334.12 755.56,339.21 756.11,341.30 C756.66,343.39 757.31,348.12 757.56,351.80 C757.95,357.51 761.64,372.00 762.71,372.00 C762.91,372.00 763.43,371.00 763.89,369.78 ZM 751.46 579.00 L 724.00 579.00 L 724.00 521.00 L 737.96 521.00 L 738.23 544.75 L 738.50 568.38 L 736.00 567.91 L 736.00 522.00 L 731.11 522.00 C727.57,522.00 726.05,522.44 725.61,523.58 C725.27,524.45 725.00,536.29 725.00,549.88 C725.00,567.77 725.33,574.93 726.20,575.80 C727.00,576.60 731.35,577.00 739.16,577.00 L 750.92 577.00 ZM 470.67 412.58 C471.11,413.74 469.63,414.00 462.61,414.00 L 454.00 414.00 L 454.00 401.00 C454.00,393.85 454.23,388.00 454.51,388.00 C455.10,388.00 469.85,410.44 470.67,412.58 ZM 487.78 394.88 C489.00,392.89 490.00,390.98 490.00,390.63 C490.00,390.28 484.83,390.00 478.50,390.00 C472.17,390.00 467.00,390.25 467.00,390.57 C467.00,391.47 469.01,395.00 473.72,402.34 L 478.10 409.18 L 481.83 403.84 C483.88,400.90 486.56,396.87 487.78,394.88 ZM 788.00 485.22 C788.00,481.65 799.47,479.03 815.12,479.01 C823.62,479.00 827.72,479.84 828.45,481.74 C829.90,485.51 827.49,486.00 807.38,486.00 C796.72,486.00 788.00,485.65 788.00,485.22 ZM 793.78 381.17 C793.62,379.70 793.24,378.27 792.92,378.00 C792.41,377.55 788.08,366.35 783.54,353.75 C782.60,351.14 781.70,349.00 781.53,349.00 C781.37,349.00 781.00,349.90 780.71,351.00 C780.42,352.10 780.52,352.80 780.92,352.55 C781.55,352.16 783.09,356.32 785.68,365.38 C786.02,366.59 785.82,367.01 785.11,366.57 C784.50,366.19 784.00,366.43 784.00,367.10 C784.00,369.76 780.08,364.55 774.93,355.06 C771.98,349.61 769.24,345.35 768.84,345.60 C768.05,346.09 770.44,353.61 771.96,355.46 C772.48,356.08 774.06,360.17 775.47,364.54 C776.88,368.92 778.73,373.62 779.58,375.00 L 781.13 377.50 L 780.62 375.12 C780.35,373.81 780.72,372.14 781.46,371.40 C782.58,370.28 783.59,371.28 787.63,377.45 C792.54,384.95 794.27,386.00 793.78,381.17 ZM 627.25 301.54 C627.96,301.24 628.44,300.60 628.71,299.84 L 628.50 303.50 L 594.12 303.76 C592.26,303.78 590.50,303.79 588.83,303.81 C568.81,303.97 561.76,304.02 561.44,302.58 C561.27,301.80 563.07,300.57 565.86,298.68 C566.29,298.39 566.74,298.08 567.21,297.76 L 572.50 294.13 L 629.10 293.20 L 628.85 297.47 C628.65,296.62 628.18,295.90 627.42,295.61 C626.55,295.27 613.84,295.02 599.17,295.04 L 572.50 295.08 L 569.00 298.07 C566.08,300.58 565.75,301.24 567.00,302.09 C568.73,303.26 624.44,302.76 627.25,301.54 ZM 670.34 400.04 C676.47,390.82 676.07,390.00 665.50,390.00 C655.51,390.00 654.63,391.02 659.29,397.23 C661.06,399.58 663.14,402.74 663.92,404.25 C664.70,405.76 665.42,407.00 665.52,407.00 C665.62,407.00 667.79,403.87 670.34,400.04 ZM 586.50 123.35 C584.30,121.39 580.92,118.60 579.00,117.14 C577.08,115.69 573.70,112.86 571.50,110.85 C569.30,108.84 565.07,105.24 562.10,102.85 C546.31,90.14 542.43,87.25 541.70,87.69 C540.71,88.30 542.85,91.00 544.32,91.00 C544.92,91.00 546.87,92.42 548.66,94.15 C551.20,96.62 551.70,97.69 550.96,99.07 C550.16,100.56 550.72,101.11 554.56,102.58 C557.64,103.75 559.64,105.31 560.76,107.41 C561.67,109.11 562.33,110.80 562.24,111.16 C562.14,111.52 562.84,111.67 563.78,111.48 C564.73,111.30 566.09,111.12 566.81,111.08 C567.56,111.03 567.80,110.49 567.38,109.80 C566.25,107.98 572.78,112.85 574.23,114.91 C574.93,115.91 578.20,119.01 581.50,121.82 C588.27,127.57 592.79,128.96 586.50,123.35 ZM 465.89 412.09 C467.04,411.36 466.91,410.47 465.12,406.85 C463.93,404.46 461.17,400.03 458.98,397.01 L 455.00 391.53 L 455.00 401.69 C455.00,410.53 455.23,411.91 456.75,412.31 C459.81,413.11 464.45,413.00 465.89,412.09 ZM 794.00 484.09 C800.38,484.95 820.76,485.02 825.40,484.19 C828.92,483.57 829.14,483.36 827.62,482.10 C826.25,480.96 822.92,480.81 810.21,481.33 C792.59,482.03 786.47,483.08 794.00,484.09 ZM 662.02 472.43 C661.33,474.25 660.31,475.00 658.52,475.00 C656.02,475.00 656.00,474.92 656.00,466.50 C656.00,458.08 656.02,458.00 658.52,458.00 C661.41,458.00 663.00,461.02 663.00,466.50 C663.00,468.35 662.56,471.02 662.02,472.43 ZM 606.77 141.00 C606.08,139.90 605.20,139.00 604.82,139.00 C604.43,139.00 601.37,136.46 598.03,133.36 C591.96,127.75 589.80,126.90 591.99,130.98 C592.87,132.62 592.85,133.48 591.91,134.61 C590.53,136.27 590.78,136.58 596.48,140.36 C599.02,142.04 601.83,143.00 604.24,143.00 C607.77,143.00 607.93,142.87 606.77,141.00 ZM 793.38 402.25 C794.61,406.10 795.08,403.61 794.43,396.75 C793.88,390.98 793.05,388.38 790.34,384.00 C783.07,372.26 781.38,371.90 786.05,383.10 C787.75,387.17 789.59,391.85 790.15,393.50 C790.71,395.15 791.54,397.40 791.99,398.50 C792.45,399.60 793.07,401.29 793.38,402.25 ZM 586.00 130.72 C592.80,134.01 593.05,133.39 587.04,128.21 C584.04,125.62 578.47,120.67 574.67,117.21 C567.38,110.58 565.17,109.74 569.13,115.11 C573.71,121.32 581.55,128.57 586.00,130.72 ZM 582.00 464.36 C582.00,465.52 581.11,466.00 579.00,466.00 C577.27,466.00 575.99,465.47 575.99,464.75 C575.95,461.51 578.50,445.00 579.03,445.00 C579.60,445.00 582.00,460.69 582.00,464.36 ZM 731.37 290.34 C730.39,288.78 727.62,284.91 725.23,281.75 C722.84,278.59 721.25,275.99 721.69,275.98 C722.69,275.97 719.79,274.04 718.73,274.02 C717.40,273.99 718.71,278.31 721.60,283.50 C724.78,289.20 728.05,292.55 728.97,291.04 C729.33,290.47 730.19,290.87 730.99,291.99 C733.11,294.93 733.42,293.58 731.37,290.34 ZM 759.50 584.00 C759.16,583.45 759.36,583.00 759.94,583.00 C761.51,583.00 761.33,570.28 759.75,569.75 C759.45,569.65 759.21,568.99 759.02,567.57 L 760.79 567.82 C763.00,568.14 763.06,568.43 762.79,577.32 L 762.50 586.50 L 759.00 586.64 C752.05,586.91 750.76,586.21 751.20,582.42 L 751.56 579.35 L 752.00 581.00 C753.00,584.71 753.34,585.00 756.60,585.00 C758.69,585.00 759.87,584.59 759.50,584.00 ZM 802.16 404.32 C801.09,401.67 799.20,396.69 797.98,393.25 C796.76,389.81 795.59,387.00 795.39,387.00 C795.19,387.00 795.31,390.49 795.65,394.75 C796.10,400.27 796.79,402.99 798.07,404.22 C799.34,405.45 799.98,405.59 800.29,404.72 C800.53,404.05 801.32,405.52 802.04,408.00 C802.78,410.56 803.51,411.78 803.73,410.82 C803.94,409.90 803.24,406.98 802.16,404.32 ZM 543.50 96.28 C550.79,98.43 550.93,98.31 546.12,93.96 C541.49,89.77 539.66,89.29 535.55,91.16 C532.26,92.66 532.32,93.65 535.75,94.29 C537.26,94.57 540.75,95.47 543.50,96.28 ZM 767.56 463.62 C767.09,465.35 766.01,465.98 762.75,466.48 C756.42,467.46 745.01,469.82 740.75,471.03 C737.09,472.07 737.00,472.21 737.00,476.85 C737.00,479.46 736.46,482.14 735.80,482.80 C735.73,482.87 735.64,482.94 735.52,483.00 L 735.80 477.21 C735.93,474.51 735.88,472.87 736.61,471.71 C737.90,469.66 741.61,469.14 753.00,467.04 C759.88,465.77 766.09,464.57 766.81,464.37 C767.13,464.29 767.38,464.03 767.56,463.62 ZM 528.87 126.92 C528.81,119.25 528.36,112.72 527.88,112.43 C527.39,112.12 527.03,119.26 527.06,128.69 C527.11,140.10 527.43,144.76 528.06,143.18 C528.57,141.91 528.94,134.59 528.87,126.92 ZM 660.80 466.24 C661.07,460.52 660.92,460.00 659.05,460.00 C657.19,460.00 657.00,460.62 657.00,466.57 C657.00,472.29 657.23,473.10 658.75,472.81 C660.15,472.55 660.56,471.25 660.80,466.24 ZM 573.04 122.54 C571.76,121.18 570.33,120.30 569.87,120.58 C569.40,120.87 569.24,120.52 569.50,119.80 C570.10,118.16 568.36,115.30 567.37,116.30 C566.97,116.70 567.14,117.54 567.77,118.17 C568.57,118.97 568.60,119.88 567.88,121.22 C566.85,123.15 568.41,126.48 569.91,125.55 C570.29,125.32 571.25,125.53 572.04,126.02 C574.76,127.71 575.50,125.16 573.04,122.54 ZM 743.45 484.91 C742.28,483.02 744.21,482.14 750.57,481.89 C750.22,481.93 749.86,481.96 749.50,482.00 C743.60,482.62 743.60,483.53 749.50,484.31 C754.60,484.98 759.40,485.00 761.75,484.37 C765.53,483.36 764.15,482.36 760.36,481.91 C765.72,482.18 766.73,482.99 764.46,484.65 C762.17,486.33 744.46,486.55 743.45,484.91 ZM 808.23 448.83 C810.39,448.45 814.46,448.37 821.38,448.41 C835.67,448.50 837.82,448.86 836.54,450.93 C836.45,451.08 836.04,451.22 835.37,451.34 C835.79,451.24 836.00,451.12 836.00,451.00 C836.00,450.42 832.36,449.96 827.25,449.92 C822.44,449.87 815.89,449.51 812.69,449.11 C810.77,448.87 809.29,448.77 808.23,448.83 ZM 774.22 326.57 C773.23,323.31 771.83,320.44 771.11,320.20 C770.13,319.88 769.99,320.37 770.58,322.13 C771.01,323.43 771.38,325.25 771.40,326.18 C771.41,327.10 771.77,327.64 772.19,327.38 C772.61,327.12 773.51,329.07 774.20,331.71 C774.93,334.49 775.57,335.66 775.73,334.50 C775.89,333.40 775.20,329.83 774.22,326.57 ZM 535.50 153.92 C535.50,148.46 535.16,144.00 534.75,144.00 C534.34,144.00 534.00,148.80 534.00,154.67 C534.00,160.53 534.34,165.00 534.75,164.58 C535.16,164.17 535.50,159.37 535.50,153.92 ZM 746.92 346.28 C745.84,343.13 744.46,340.09 743.86,339.53 C743.08,338.79 743.01,339.21 743.59,341.00 C744.04,342.38 744.42,344.47 744.45,345.65 C744.48,346.84 744.79,347.63 745.14,347.41 C745.50,347.19 746.07,348.14 746.41,349.51 C746.76,350.88 747.46,352.00 747.97,352.00 C748.48,352.00 748.01,349.42 746.92,346.28 ZM 761.00 287.06 C761.00,286.17 760.39,284.56 759.65,283.47 C758.91,282.39 757.98,280.21 757.60,278.63 C757.22,277.05 756.72,275.95 756.49,276.18 C756.26,276.41 756.71,279.01 757.49,281.97 C758.27,284.92 758.72,287.64 758.50,288.00 C758.27,288.37 758.74,288.67 759.54,288.67 C760.34,288.67 761.00,287.94 761.00,287.06 ZM 765.03 299.83 C764.09,296.41 762.81,293.44 762.19,293.23 C761.49,293.00 761.80,295.01 763.00,298.51 C764.07,301.62 764.91,304.46 764.86,304.83 C764.64,306.37 765.05,307.08 765.87,306.58 C766.34,306.29 765.96,303.25 765.03,299.83 ZM 535.98 268.75 C535.97,264.99 535.69,263.93 535.00,265.00 C533.37,267.52 533.85,274.00 535.67,274.00 C535.85,274.00 535.99,271.64 535.98,268.75 ZM 734.85 253.96 C734.03,254.56 732.43,255.13 730.11,255.65 C727.14,256.31 724.44,257.26 724.11,257.77 C723.29,259.00 717.40,260.09 715.51,259.37 C715.30,259.29 715.11,259.13 714.95,258.91 L 717.10 258.50 C725.59,256.88 733.39,254.87 734.85,253.96 ZM 738.76 301.25 C736.62,296.74 735.53,295.00 734.86,295.00 C733.80,295.00 734.93,298.07 736.81,300.25 C738.35,302.05 739.39,302.58 738.76,301.25 ZM 528.10 148.29 C527.27,146.86 527.07,147.42 527.11,151.00 C527.15,155.15 527.23,155.29 528.15,152.79 C528.82,150.96 528.80,149.49 528.10,148.29 ZM 579.10 458.94 C578.15,456.55 578.13,456.57 578.06,459.58 C578.03,461.28 578.34,463.01 578.75,463.42 C579.94,464.62 580.17,461.62 579.10,458.94 ZM 452.72 485.51 C450.06,485.79 440.79,486.00 430.42,486.00 L 412.16 486.00 L 431.25 485.77 ZM 728.59 296.51 C728.23,295.08 727.52,294.18 727.01,294.49 C726.45,294.84 726.52,296.05 727.20,297.54 C728.60,300.61 729.46,299.97 728.59,296.51 ZM 752.00 360.69 C752.00,359.97 751.32,358.51 750.50,357.44 C748.93,355.42 748.93,355.58 750.47,360.50 C751.05,362.35 752.00,362.47 752.00,360.69 ZM 590.35 147.44 C591.59,148.91 596.02,153.06 601.25,157.62 C607.44,163.01 616.81,171.32 622.08,176.08 C627.36,180.84 632.76,185.68 634.08,186.83 C634.70,187.36 635.76,188.32 637.15,189.61 C637.14,189.60 637.14,189.60 637.13,189.59 C636.23,189.10 634.12,187.30 632.44,185.59 C630.76,183.89 622.23,176.20 613.49,168.50 C596.53,153.57 591.49,149.08 590.35,147.44 ZM 426.92 544.86 C427.62,544.83 428.36,544.64 428.89,544.30 C430.18,543.49 430.56,541.10 430.78,532.14 L 431.00 523.58 L 431.00 531.88 C431.00,542.52 430.33,545.23 426.92,544.86 ZM 733.66 483.56 C730.76,484.09 725.70,484.17 721.92,483.83 C723.24,483.87 724.88,483.85 726.90,483.79 ZM 744.58 565.00 L 745.00 547.03 C744.99,555.47 744.85,561.50 744.58,565.00 ZM 758.23 544.25 L 758.35 554.20 C758.29,551.59 758.24,548.60 758.20,545.17 L 757.90 521.00 L 757.96 521.00 ZM 472.76 313.38 C476.92,313.78 488.42,314.00 506.29,314.00 C484.94,314.00 476.22,313.90 472.76,313.38 ZM 439.61 548.07 C441.17,545.70 442.22,543.52 442.89,541.02 C442.13,544.38 441.00,546.88 439.61,548.07 ZM 745.71 522.36 C745.75,521.66 745.78,521.28 745.80,521.25 C745.91,521.11 748.69,521.00 751.98,521.00 C747.92,521.00 746.28,521.35 745.71,522.36 ZM 739.15 568.50 L 743.98 568.50 C743.97,568.52 743.95,568.53 743.94,568.54 C743.35,568.90 741.32,568.91 739.44,568.55 ZM 723.52 227.68 C723.18,226.96 723.00,226.28 723.00,225.65 C723.00,224.51 723.37,223.82 723.83,223.62 C723.75,223.80 723.65,224.01 723.55,224.25 C723.14,225.19 723.13,226.71 723.52,227.68 ZM 714.28 252.32 L 714.04 255.08 C713.97,253.15 714.18,250.77 714.68,248.33 C714.54,249.48 714.41,250.80 714.28,252.32 ZM 713.60 272.08 C713.76,273.16 714.15,274.56 714.73,276.00 C715.48,277.84 717.28,283.19 720.86,294.23 C716.56,281.00 714.57,275.24 714.05,274.50 C713.74,274.05 713.59,273.25 713.60,272.08 ZM 767.33 457.67 C768.01,458.91 768.17,460.43 767.84,462.35 C767.89,461.77 767.88,461.07 767.81,460.26 C767.72,459.15 767.59,458.33 767.33,457.67 ZM 568.03 129.91 C571.07,132.65 574.84,135.91 579.25,139.61 C582.41,142.26 585.00,144.78 585.00,145.22 C584.98,144.77 581.52,141.52 577.30,137.97 C573.73,134.97 570.63,132.28 568.03,129.91 ZM 607.77 153.21 C611.11,155.97 616.00,161.33 616.00,162.63 C616.00,161.42 611.32,156.27 607.77,153.21 ZM 647.78 253.94 C648.94,253.31 651.69,252.12 654.50,251.07 C654.65,251.01 654.79,250.96 654.94,250.90 C652.95,251.69 650.52,252.72 647.78,253.94 ZM 806.50 451.00 C806.87,451.59 813.01,452.00 821.56,452.00 C822.67,452.00 823.72,451.99 824.72,451.98 C816.52,452.12 806.99,451.80 806.50,451.00 ZM 715.56 223.09 C714.66,224.16 712.16,224.07 708.58,222.03 C711.74,223.83 714.60,224.15 715.56,223.09 ZM 712.77 231.54 C711.38,231.67 709.60,232.00 707.74,232.47 C709.72,231.91 711.26,231.56 712.77,231.54 ZM 759.30 410.58 C757.44,405.16 755.28,398.45 753.01,391.00 C755.10,397.86 757.35,404.83 759.30,410.58 ZM 800.65 420.26 C800.07,419.73 799.66,418.76 799.20,417.28 C799.63,418.67 800.11,419.66 800.65,420.26 ZM 657.13 250.07 C659.53,249.15 661.69,248.29 662.50,247.95 C663.60,247.48 666.19,246.42 668.25,245.60 C666.19,246.42 663.60,247.48 662.50,247.95 C661.52,248.38 659.22,249.28 657.13,250.07 ZM 717.15 482.68 C717.14,482.67 717.14,482.66 717.13,482.66 C716.93,482.42 716.76,481.12 716.60,478.67 C716.76,481.10 716.94,482.39 717.15,482.68 ZM 524.01 522.20 C523.95,521.96 523.85,521.76 523.68,521.61 C523.90,521.77 524.01,521.96 524.01,522.20 ZM 699.33 234.79 C697.95,235.12 696.86,235.34 696.34,235.37 C696.01,235.39 695.40,235.09 694.47,234.44 C695.40,235.09 696.01,235.39 696.34,235.37 C696.85,235.33 697.94,235.12 699.33,234.79 ZM 682.86 230.63 C682.95,230.47 682.99,230.26 683.00,229.98 C683.00,230.27 682.96,230.49 682.86,230.63 Z" fill="rgb(18,101,168)"/>
<path d="M 638.42 162.79 C626.12,154.68 616.06,147.67 615.86,147.08 C615.55,146.15 601.84,145.58 594.58,145.87 C595.82,145.69 597.24,145.53 598.75,145.39 C606.16,144.73 606.89,144.52 603.50,144.01 C603.16,143.95 602.71,143.84 602.17,143.65 C603.57,143.96 604.85,144.00 606.56,144.00 L 612.45 144.00 L 610.45 142.00 C611.18,142.68 611.87,143.34 612.50,143.94 C615.57,146.89 626.89,155.10 638.42,162.79 ZM 762.56 473.10 C762.26,472.61 762.75,471.93 763.65,471.58 C764.74,471.16 767.02,470.81 769.78,470.56 C769.76,470.58 769.74,470.59 769.73,470.61 C769.39,470.94 769.66,471.82 770.31,472.57 C771.03,473.38 774.56,473.86 778.42,473.95 C771.22,474.22 763.11,473.99 762.56,473.10 ZM 713.60 272.08 C713.60,271.52 713.64,270.87 713.72,270.14 C713.79,270.05 713.89,270.00 714.00,270.00 C714.43,270.00 715.75,272.58 717.65,276.95 C717.55,276.76 717.46,276.61 717.38,276.51 C714.83,273.02 714.89,275.60 717.51,283.99 C716.07,279.63 715.20,277.14 714.73,276.00 C714.15,274.56 713.76,273.16 713.60,272.08 ZM 793.38 402.25 C793.07,401.29 792.45,399.60 791.99,398.50 C791.54,397.40 790.71,395.15 790.15,393.50 C790.71,395.15 791.69,397.59 792.33,398.92 C793.39,401.11 793.53,400.80 793.80,395.65 C793.87,394.37 793.90,393.34 793.85,392.42 C794.09,393.68 794.27,395.08 794.43,396.75 C795.08,403.61 794.61,406.10 793.38,402.25 ZM 723.52 227.68 C723.13,226.71 723.14,225.19 723.55,224.25 C723.65,224.01 723.75,223.80 723.83,223.62 C724.08,223.52 724.36,223.57 724.61,223.78 C724.65,223.92 724.69,224.07 724.73,224.25 C724.96,225.21 724.96,226.79 724.73,227.75 C724.54,228.52 724.43,228.94 724.29,228.99 C723.98,228.54 723.72,228.10 723.52,227.68 ZM 627.44 180.95 C629.94,183.22 631.76,184.90 632.44,185.59 C634.12,187.30 636.23,189.10 637.13,189.59 C637.14,189.60 637.14,189.60 637.15,189.61 C637.96,190.35 638.88,191.21 639.90,192.16 C637.85,190.32 636.45,189.12 635.96,188.83 C634.46,187.91 633.06,186.77 632.86,186.29 C632.71,185.93 630.73,183.99 627.44,180.95 ZM 585.20 135.07 C579.39,131.82 572.26,127.68 563.77,122.64 C567.02,124.55 575.29,129.35 583.58,134.14 C584.13,134.46 584.67,134.77 585.20,135.07 ZM 726.66 299.60 C729.18,306.28 731.84,313.60 734.42,321.00 C735.86,325.12 737.45,329.40 737.94,330.50 C738.44,331.60 739.75,335.20 740.86,338.50 C739.75,335.20 738.43,331.60 737.94,330.50 C737.44,329.40 735.28,323.55 733.14,317.50 C730.89,311.14 728.68,305.05 726.66,299.60 ZM 779.04 470.16 C781.54,470.16 783.86,470.25 785.57,470.47 C788.41,470.82 789.84,471.04 790.30,471.36 C789.92,471.23 789.32,471.09 788.50,470.91 C786.74,470.51 782.84,470.25 779.04,470.16 ZM 603.87 136.06 C603.17,135.45 602.46,134.85 601.78,134.28 C598.63,131.65 588.73,123.34 579.78,115.81 L 579.70 115.74 C571.79,109.09 565.59,103.87 560.68,99.77 C565.61,103.88 571.84,109.13 579.78,115.81 C588.74,123.34 598.42,131.45 601.28,133.84 C602.02,134.46 602.91,135.21 603.87,136.06 ZM 590.35 147.44 C590.45,147.58 590.58,147.75 590.75,147.95 C590.26,147.43 590.00,147.11 590.00,147.00 C590.00,146.99 590.00,146.97 590.01,146.96 C590.04,147.05 590.16,147.21 590.35,147.44 ZM 540.40 85.19 C541.60,85.11 542.83,85.53 546.61,88.36 C542.83,85.53 541.59,85.11 540.39,85.20 C540.11,85.22 539.84,85.26 539.55,85.31 C539.85,85.26 540.12,85.21 540.40,85.19 ZM 559.25 120.93 L 559.25 120.92 C559.10,120.56 559.23,120.42 559.66,120.51 C559.23,120.42 559.10,120.57 559.25,120.93 Z" fill="rgb(173,208,232)"/>
<path d="M 0.00 418.00 L 0.00 0.00 L 627.00 0.00 L 1254.00 0.00 L 1254.00 418.00 L 1254.00 836.00 L 627.00 836.00 L 0.00 836.00 L 0.00 418.00 ZM 762.79 577.32 C763.06,568.43 763.00,568.14 760.79,567.82 L 758.50 567.50 L 758.23 544.25 L 757.96 521.00 L 751.98 521.00 C748.69,521.00 745.91,521.11 745.80,521.25 C745.68,521.39 745.35,532.08 745.05,545.00 L 744.50 568.50 L 741.50 568.50 L 738.50 568.50 L 738.23 544.75 L 737.96 521.00 L 730.98 521.00 L 724.00 521.00 L 724.00 550.00 L 724.00 579.00 L 737.80 579.00 L 751.60 579.00 L 751.20 582.42 C750.76,586.21 752.05,586.91 759.00,586.64 L 762.50 586.50 L 762.79 577.32 ZM 558.24 577.31 C562.81,574.68 565.00,569.80 565.00,562.25 L 565.00 556.00 L 558.50 556.00 L 552.00 556.00 L 552.00 559.43 C552.00,567.17 548.21,571.21 544.84,567.06 C543.23,565.07 543.00,562.86 543.00,549.58 C543.00,532.98 543.67,530.54 548.06,531.16 C550.28,531.47 550.53,532.01 550.80,537.25 L 551.10 543.00 L 558.05 543.00 L 565.00 543.00 L 565.00 537.25 C565.00,525.89 559.30,520.00 548.32,520.00 C541.01,520.00 536.58,521.58 533.00,525.45 C530.58,528.07 530.48,528.73 530.00,545.33 C529.27,570.55 530.44,574.80 539.10,578.26 C544.56,580.44 553.60,579.99 558.24,577.31 ZM 424.00 567.00 C424.00,555.93 424.15,555.00 425.88,555.00 C429.42,555.00 430.44,557.81 430.84,568.63 L 431.23 579.00 L 438.20 579.00 L 445.17 579.00 L 444.83 566.92 L 444.50 554.83 L 441.28 551.96 C439.32,550.21 438.48,548.82 439.13,548.42 C442.02,546.63 443.96,539.38 443.98,530.25 L 444.00 521.00 L 437.53 521.00 L 431.07 521.00 L 430.78 532.14 C430.56,541.10 430.18,543.49 428.89,544.30 C428.00,544.86 426.54,545.04 425.64,544.69 C424.25,544.16 424.00,542.29 424.00,532.62 L 424.00 521.18 L 417.75 520.79 C414.31,520.57 411.16,520.56 410.75,520.76 C410.34,520.96 410.00,534.14 410.00,550.06 L 410.00 579.00 L 417.00 579.00 L 424.00 579.00 L 424.00 567.00 ZM 476.74 576.64 C478.54,575.70 480.65,573.28 481.90,570.71 C483.78,566.82 484.00,564.63 483.98,549.43 C483.95,529.29 482.76,525.08 476.28,522.31 C471.36,520.20 461.36,520.25 457.21,522.39 C451.75,525.21 450.64,528.75 450.18,544.78 C449.52,568.11 450.91,573.15 459.22,577.40 C463.17,579.43 472.10,579.04 476.74,576.64 ZM 503.00 567.00 L 503.00 555.00 L 507.00 555.00 L 511.00 555.00 L 511.00 567.00 L 511.00 579.00 L 517.89 579.00 L 524.77 579.00 L 524.40 551.25 C524.19,535.99 524.02,522.92 524.01,522.20 C524.00,521.25 522.35,520.98 517.75,521.20 L 511.50 521.50 L 511.00 532.50 L 510.50 543.50 L 506.75 543.81 L 503.00 544.12 L 503.00 532.56 L 503.00 521.00 L 496.00 521.00 L 489.00 521.00 L 489.00 550.00 L 489.00 579.00 L 496.00 579.00 L 503.00 579.00 L 503.00 567.00 ZM 621.00 569.00 L 621.00 559.00 L 624.75 558.96 C626.81,558.93 630.74,558.14 633.48,557.21 C637.45,555.85 638.92,554.69 640.72,551.50 C645.53,542.94 642.74,525.61 636.00,522.27 C634.38,521.47 628.64,521.02 619.75,521.01 L 606.00 521.00 L 606.00 550.00 L 606.00 579.00 L 613.50 579.00 L 621.00 579.00 L 621.00 569.00 ZM 670.62 573.00 C671.23,569.97 674.05,557.22 676.87,544.65 C679.69,532.08 682.00,521.61 682.00,521.40 C682.00,521.18 678.90,521.00 675.11,521.00 L 668.23 521.00 L 667.15 527.25 C666.56,530.69 665.81,536.09 665.47,539.25 C665.13,542.41 664.48,545.00 664.03,545.00 C662.95,545.00 661.00,539.39 661.00,536.31 C661.00,534.99 660.27,531.01 659.38,527.46 L 657.76 521.00 L 650.88 521.00 C647.10,521.00 644.00,521.21 644.00,521.48 C644.00,521.87 653.17,553.71 656.08,563.42 C657.18,567.09 655.89,568.78 651.68,569.19 C648.64,569.49 648.49,569.72 648.19,574.28 L 647.89 579.07 L 658.69 578.78 L 669.50 578.50 L 670.62 573.00 ZM 698.88 578.25 C698.82,577.84 698.82,572.44 698.88,566.25 C699.01,554.48 699.51,553.35 703.17,556.65 C704.72,558.06 705.00,559.90 705.00,568.65 L 705.00 579.00 L 712.50 579.00 L 720.00 579.00 L 720.00 568.97 C720.00,558.17 718.69,553.30 715.11,550.79 L 713.00 549.31 L 715.11 547.41 C718.31,544.53 719.11,541.42 719.41,530.83 L 719.68 521.16 L 713.09 520.78 C709.47,520.58 706.16,520.57 705.75,520.77 C705.34,520.96 705.00,525.95 705.00,531.86 C705.00,542.87 704.33,545.00 700.90,545.00 C699.45,545.00 699.09,543.45 698.48,534.53 C698.09,528.77 698.03,523.37 698.35,522.53 C698.84,521.24 697.76,521.00 691.47,521.00 L 684.00 521.00 L 684.00 550.00 L 684.00 579.00 L 691.50 579.00 C695.62,579.00 698.95,578.66 698.88,578.25 ZM 784.71 563.75 L 789.85 548.50 L 789.93 563.75 L 790.00 579.00 L 797.00 579.00 L 804.00 579.00 L 804.00 549.96 L 804.00 520.91 L 796.82 521.21 L 789.65 521.50 L 785.54 533.20 C783.28,539.63 781.11,545.22 780.72,545.62 C780.32,546.01 780.00,540.63 780.00,533.67 L 780.00 521.00 L 773.00 521.00 L 766.00 521.00 L 766.00 550.00 L 766.00 579.00 L 772.78 579.00 L 779.57 579.00 L 784.71 563.75 ZM 823.00 569.43 C823.00,558.80 823.93,556.00 827.45,556.00 C829.68,556.00 829.87,556.46 830.46,563.25 C830.81,567.24 830.96,572.30 830.80,574.50 L 830.50 578.50 L 838.25 578.79 L 846.00 579.08 L 846.00 550.14 L 846.00 521.20 L 833.75 520.51 C820.63,519.77 817.41,520.37 813.14,524.32 C810.04,527.19 808.89,530.39 808.84,536.28 C808.79,542.69 810.60,546.74 814.37,548.69 C817.37,550.24 817.40,550.31 815.23,551.11 C810.69,552.79 809.01,557.56 809.00,568.75 L 809.00 579.00 L 816.00 579.00 L 823.00 579.00 L 823.00 569.43 ZM 591.00 555.00 L 591.50 532.50 L 596.75 532.20 L 602.00 531.90 L 602.00 526.45 L 602.00 521.00 L 584.95 521.00 L 567.90 521.00 L 568.20 526.25 L 568.50 531.50 L 573.00 532.00 L 577.50 532.50 L 577.77 555.30 L 578.04 578.09 L 584.27 577.80 L 590.50 577.50 L 591.00 555.00 ZM 847.39 506.25 L 847.20 501.50 L 627.85 501.50 L 408.50 501.50 L 408.20 506.25 L 407.89 511.00 L 627.74 511.00 L 847.58 511.00 L 847.39 506.25 ZM 845.46 493.38 C846.43,493.01 847.00,491.52 847.00,489.39 C847.00,486.49 846.66,486.00 844.62,486.00 C843.32,486.00 840.84,485.72 839.12,485.38 C836.05,484.76 836.00,484.65 836.00,478.90 C836.00,471.63 834.94,470.79 822.75,468.40 C817.94,467.46 814.00,466.32 814.00,465.87 C814.00,465.42 821.54,464.92 830.75,464.77 L 847.50 464.50 L 847.50 454.50 L 847.50 444.50 L 833.74 443.95 C823.60,443.55 819.60,443.02 818.56,441.95 C817.79,441.15 815.54,435.81 813.56,430.09 C811.57,424.36 807.76,414.01 805.08,407.09 C798.13,389.11 789.01,364.43 786.94,358.00 C785.97,354.98 781.94,343.27 777.98,332.00 C765.70,297.02 752.29,255.38 750.57,246.92 C750.16,244.91 748.02,243.21 740.77,239.15 C727.51,231.73 728.00,232.26 728.00,225.17 L 728.00 219.06 L 718.96 214.28 C709.14,209.08 697.48,201.64 641.00,164.50 C628.62,156.36 615.80,147.11 612.50,143.94 C609.20,140.77 604.15,136.23 601.28,133.84 C598.42,131.45 588.74,123.34 579.78,115.81 C542.75,84.66 542.87,84.76 539.55,85.31 C537.87,85.59 534.14,86.87 531.25,88.16 L 525.99 90.50 L 526.25 188.00 L 526.50 285.50 L 528.75 286.49 C530.84,287.40 531.00,288.11 531.00,296.24 C531.00,301.41 531.41,305.00 532.00,305.00 C532.59,305.00 533.00,301.41 533.00,296.24 C533.00,288.18 533.18,287.40 535.20,286.49 L 537.40 285.50 L 537.11 198.64 C536.93,142.24 537.18,111.90 537.81,112.14 C538.35,112.34 546.61,119.93 556.16,129.00 L 573.53 145.50 L 557.27 145.77 L 541.00 146.05 L 541.00 219.02 L 541.00 292.00 L 558.33 292.00 L 575.67 292.00 L 586.58 285.36 C602.90,275.45 643.03,255.31 656.39,250.34 C658.65,249.50 661.40,248.43 662.50,247.95 C663.60,247.48 666.19,246.42 668.25,245.60 C670.31,244.77 672.00,243.53 672.00,242.83 C672.00,242.12 650.85,220.38 625.00,194.51 C599.15,168.64 578.00,147.14 578.00,146.74 C578.00,146.33 579.58,146.00 581.50,146.00 C583.42,146.00 585.00,145.65 585.00,145.22 C585.00,144.78 582.41,142.26 579.25,139.61 C561.56,124.78 554.21,116.95 562.75,122.03 C586.64,136.24 600.08,143.49 603.50,144.01 C606.89,144.52 606.16,144.73 598.75,145.39 C593.94,145.83 590.00,146.55 590.00,147.00 C590.00,147.45 595.06,152.23 601.25,157.62 C618.33,172.50 632.46,185.31 632.86,186.29 C633.06,186.77 634.46,187.91 635.96,188.83 C637.47,189.75 648.02,199.50 659.40,210.50 C678.90,229.36 683.00,232.74 683.00,229.99 C683.00,228.63 666.53,212.10 637.25,184.10 C625.56,172.92 616.00,163.26 616.00,162.63 C616.00,160.93 607.71,152.36 605.33,151.61 C604.19,151.24 602.42,149.99 601.38,148.82 C599.51,146.71 599.51,146.70 602.26,147.37 C605.94,148.27 621.41,157.51 648.50,175.00 C691.89,203.02 699.19,207.86 707.00,213.79 C711.67,217.34 715.65,220.87 715.82,221.63 C716.43,224.20 712.77,224.41 708.58,222.03 C704.28,219.60 653.86,185.12 653.00,184.03 C652.72,183.68 650.81,182.37 648.75,181.12 C646.69,179.86 645.00,178.42 645.00,177.92 C645.00,177.41 644.44,177.00 643.75,177.00 C643.06,177.01 638.76,174.47 634.19,171.37 C622.62,163.52 621.72,165.46 632.24,175.56 C636.78,179.92 652.58,195.19 667.34,209.49 C686.69,228.25 694.78,235.46 696.34,235.37 C697.53,235.30 701.65,234.27 705.50,233.10 C709.42,231.90 713.60,231.21 715.00,231.55 C720.39,232.83 746.00,248.68 746.00,250.73 C746.00,253.65 740.75,251.47 728.51,243.48 C721.37,238.81 715.07,235.14 714.51,235.32 C713.96,235.51 712.62,240.23 711.54,245.83 C710.46,251.42 709.31,256.00 708.99,256.00 C708.66,256.00 704.45,251.99 699.63,247.08 L 690.87 238.16 L 687.45 239.59 C685.57,240.37 681.75,241.50 678.96,242.10 C676.18,242.70 674.03,243.58 674.20,244.07 C674.36,244.55 678.66,249.42 683.75,254.90 C688.84,260.37 693.00,265.34 693.00,265.95 C693.00,266.55 694.04,267.44 695.30,267.92 C696.63,268.43 698.07,270.21 698.71,272.15 C699.32,273.99 704.39,288.77 709.97,305.00 C729.63,362.15 733.26,372.75 742.45,400.00 C761.22,455.62 760.22,453.08 764.07,454.89 C766.96,456.25 767.55,457.10 767.81,460.26 C768.01,462.72 767.67,464.14 766.81,464.37 C766.09,464.57 759.88,465.77 753.00,467.04 C735.17,470.33 736.15,469.75 735.80,477.21 L 735.50 483.50 L 726.90 483.79 C720.54,484.00 718.01,483.72 717.16,482.69 C716.34,481.70 715.94,465.33 715.76,424.41 L 715.50 367.50 L 608.50 367.00 C515.30,366.56 501.54,366.31 501.82,365.04 C502.66,361.21 519.04,341.02 533.28,326.28 C538.71,320.65 542.87,315.59 542.52,315.03 C542.10,314.36 529.60,314.00 506.44,314.00 C483.48,314.00 471.00,313.65 471.00,313.00 C471.00,312.34 498.00,312.00 550.00,312.00 L 629.00 312.00 L 629.00 309.50 L 629.00 307.00 L 580.25 306.97 C553.44,306.96 517.89,306.97 501.25,307.00 L 471.00 307.05 L 471.00 299.53 L 471.00 292.00 L 497.50 292.00 L 524.00 292.00 L 524.00 219.00 L 524.00 146.00 L 489.00 146.00 L 453.99 146.00 L 454.25 261.25 L 454.50 376.50 L 574.00 377.01 L 693.50 377.51 L 571.18 377.76 L 448.87 378.00 L 449.18 380.75 C449.43,382.88 450.17,383.63 452.50,384.13 C454.15,384.48 506.91,384.82 569.75,384.88 C668.83,384.98 684.00,385.19 684.00,386.45 C684.00,387.25 680.61,393.10 676.47,399.45 C672.33,405.81 668.68,411.68 668.36,412.50 C667.87,413.78 669.55,414.00 679.89,414.00 C691.17,414.00 692.00,414.13 692.00,415.92 C692.00,417.54 691.03,417.94 685.75,418.45 C682.31,418.79 627.64,418.94 564.25,418.78 L 449.00 418.50 L 449.00 421.25 C449.00,423.89 449.21,424.00 454.25,424.10 C458.07,424.17 458.82,424.39 457.00,424.89 L 454.50 425.59 L 454.00 455.54 L 453.50 485.50 L 431.25 485.77 L 409.00 486.04 L 409.00 489.45 C409.00,491.85 409.51,492.99 410.75,493.31 C413.38,493.99 843.69,494.06 845.46,493.38 ZM 470.67 412.58 C469.85,410.44 455.10,388.00 454.51,388.00 C454.23,388.00 454.00,393.85 454.00,401.00 L 454.00 414.00 L 462.61 414.00 C469.63,414.00 471.11,413.74 470.67,412.58 ZM 514.71 409.25 C512.89,406.64 509.24,401.01 506.60,396.75 C503.95,392.49 501.50,389.02 501.15,389.04 C500.79,389.06 497.04,394.69 492.80,401.54 L 485.10 414.00 L 501.56 414.00 L 518.01 414.00 L 514.71 409.25 ZM 563.92 410.75 C556.51,398.77 550.34,389.62 549.50,389.34 C548.95,389.17 545.91,393.18 542.73,398.26 C539.56,403.34 536.03,408.96 534.89,410.75 L 532.80 414.00 L 549.37 414.00 L 565.93 414.00 L 563.92 410.75 ZM 613.00 413.37 C613.00,412.58 597.89,389.00 597.38,389.00 C597.09,389.00 584.56,407.89 581.64,412.75 C581.05,413.73 584.36,414.00 596.94,414.00 C605.77,414.00 613.00,413.72 613.00,413.37 ZM 652.66 401.52 C648.17,394.66 644.28,389.05 644.00,389.06 C643.50,389.08 629.79,411.24 629.17,413.04 C628.96,413.63 635.07,414.00 644.83,414.00 L 660.82 414.00 L 652.66 401.52 ZM 534.33 399.75 L 541.93 388.00 L 525.41 388.00 C512.45,388.00 509.05,388.27 509.64,389.25 C516.55,400.59 525.33,413.05 525.94,412.38 C526.38,411.89 530.15,406.21 534.33,399.75 ZM 582.29 400.00 L 589.67 388.50 L 574.19 388.22 C565.68,388.07 558.53,388.13 558.30,388.36 C558.08,388.59 561.38,394.23 565.64,400.90 C569.90,407.56 573.73,412.67 574.14,412.26 C574.56,411.84 578.22,406.32 582.29,400.00 ZM 636.69 388.36 C636.47,388.13 629.26,388.07 620.67,388.22 L 605.06 388.50 L 613.06 400.85 L 621.07 413.21 L 629.09 400.99 C633.50,394.27 636.92,388.59 636.69,388.36 ZM 490.38 393.75 L 494.06 388.00 L 478.60 388.00 L 463.14 388.00 L 470.72 400.02 L 478.29 412.04 L 482.50 405.77 C484.81,402.32 488.36,396.91 490.38,393.75 ZM 673.08 398.74 L 679.66 388.50 L 672.83 388.21 C669.07,388.04 662.86,388.04 659.01,388.21 L 652.02 388.50 L 658.62 398.75 C662.25,404.39 665.51,408.99 665.86,408.99 C666.21,408.98 669.46,404.36 673.08,398.74 ZM 628.80 298.35 L 629.10 293.20 L 600.80 293.67 L 572.50 294.13 L 567.21 297.76 C557.56,304.38 556.11,304.05 594.12,303.76 L 628.50 303.50 L 628.80 298.35 ZM 721.00 178.00 L 721.00 146.00 L 671.30 146.00 C643.97,146.00 622.03,146.38 622.55,146.84 C623.71,147.87 656.16,169.14 664.50,174.34 C667.80,176.39 681.30,185.22 694.50,193.96 C707.70,202.69 719.06,209.88 719.75,209.92 C720.73,209.98 721.00,202.98 721.00,178.00 ZM 464.57 567.43 C462.34,565.20 462.23,533.88 464.44,532.05 C467.12,529.83 470.30,531.20 471.28,534.99 C472.68,540.40 471.79,565.35 470.13,567.35 C468.40,569.42 466.59,569.45 464.57,567.43 ZM 620.63 545.75 C620.30,544.51 620.02,540.90 620.01,537.72 C620.00,531.33 620.74,530.53 625.50,531.82 C628.33,532.59 628.52,532.95 628.80,538.29 C629.17,545.34 627.88,548.00 624.08,548.00 C621.97,548.00 621.08,547.42 620.63,545.75 ZM 823.60 543.83 C821.79,541.26 821.52,536.38 822.98,532.57 C823.72,530.60 824.65,530.00 826.96,530.00 C830.54,530.00 831.27,531.90 830.81,540.05 C830.52,545.11 830.31,545.52 827.85,545.81 C825.99,546.02 824.71,545.43 823.60,543.83 ZM 504.68 483.60 C495.62,480.25 494.79,477.77 495.19,455.06 L 495.50 436.84 L 499.06 433.58 C504.39,428.70 515.56,428.02 523.21,432.11 C526.23,433.73 528.00,439.23 528.00,447.02 L 528.00 454.10 L 521.75 453.80 L 515.50 453.50 L 515.20 447.50 C514.83,439.85 514.51,439.00 512.01,439.00 C508.85,439.00 508.00,442.81 508.00,457.00 C508.00,471.58 508.88,475.30 512.19,474.82 C514.61,474.47 516.50,469.38 515.72,465.30 C515.29,463.09 515.53,463.00 521.76,463.00 L 528.23 463.00 L 527.82 469.49 C527.37,476.50 525.25,480.55 520.91,482.68 C516.82,484.69 508.85,485.14 504.68,483.60 ZM 749.50 484.31 C743.60,483.53 743.60,482.62 749.50,482.00 C759.54,480.95 768.24,482.63 761.75,484.37 C759.40,485.00 754.60,484.98 749.50,484.31 ZM 794.00 484.09 C786.47,483.08 792.59,482.03 810.21,481.33 C822.92,480.81 826.25,480.96 827.62,482.10 C829.14,483.36 828.92,483.57 825.40,484.19 C820.76,485.02 800.38,484.95 794.00,484.09 ZM 540.00 462.56 L 540.00 441.11 L 535.75 440.81 L 531.50 440.50 L 531.20 435.75 L 530.89 431.00 L 546.45 431.00 L 562.00 431.00 L 562.00 436.00 L 562.00 441.00 L 558.00 441.00 L 554.00 441.00 L 554.00 462.50 L 554.00 484.00 L 547.00 484.00 L 540.00 484.00 L 540.00 462.56 ZM 562.51 472.25 C563.72,465.79 565.70,454.88 566.91,448.00 C568.13,441.12 569.33,434.49 569.58,433.25 C570.02,431.11 570.50,431.00 579.32,431.00 L 588.59 431.00 L 589.77 438.75 C590.43,443.01 592.53,454.83 594.46,465.00 C596.39,475.17 597.98,483.61 597.98,483.75 C597.99,483.89 595.08,484.00 591.52,484.00 C584.56,484.00 584.79,484.19 583.78,477.50 C583.52,475.84 582.71,475.50 578.99,475.50 L 574.50 475.50 L 574.19 479.75 L 573.89 484.00 L 567.10 484.00 L 560.32 484.00 L 562.51 472.25 ZM 582.00 464.36 C582.00,460.69 579.60,445.00 579.03,445.00 C578.50,445.00 575.95,461.51 575.99,464.75 C575.99,465.47 577.27,466.00 579.00,466.00 C581.11,466.00 582.00,465.52 582.00,464.36 ZM 600.00 479.50 C600.00,476.21 600.40,475.00 601.46,475.00 C604.62,475.00 605.16,471.15 604.83,450.92 L 604.50 431.00 L 620.25 431.00 L 636.00 431.00 L 636.00 457.50 L 636.00 484.00 L 629.50 484.00 L 623.00 484.00 L 623.00 462.00 L 623.00 440.00 L 620.00 440.00 L 617.00 440.00 L 617.00 459.08 L 617.00 478.15 L 614.08 481.08 C611.54,483.61 610.41,484.00 605.58,484.00 L 600.00 484.00 L 600.00 479.50 ZM 643.00 457.50 L 643.00 431.00 L 649.50 431.00 L 656.00 431.00 L 656.00 440.00 L 656.00 449.00 L 661.03 449.00 C672.70,449.00 676.78,454.48 675.71,468.69 C674.73,481.58 671.47,483.85 653.75,483.94 L 643.00 484.00 L 643.00 457.50 ZM 662.02 472.43 C662.56,471.02 663.00,468.35 663.00,466.50 C663.00,461.02 661.41,458.00 658.52,458.00 C656.02,458.00 656.00,458.08 656.00,466.50 C656.00,474.92 656.02,475.00 658.52,475.00 C660.31,475.00 661.33,474.25 662.02,472.43 ZM 770.31 472.57 C769.66,471.82 769.39,470.94 769.73,470.61 C770.52,469.81 784.63,470.04 788.50,470.91 C791.44,471.57 791.46,471.61 789.32,472.79 C786.26,474.48 771.84,474.31 770.31,472.57 ZM 806.50 451.00 C805.24,448.95 807.04,448.40 812.69,449.11 C815.89,449.51 822.44,449.87 827.25,449.92 C832.36,449.96 836.00,450.42 836.00,451.00 C836.00,451.62 830.52,452.00 821.56,452.00 C813.01,452.00 806.87,451.59 806.50,451.00 ZM 800.00 441.37 C798.62,441.18 793.81,440.52 789.29,439.91 C781.59,438.87 776.79,436.62 780.14,435.61 C780.89,435.39 785.73,433.78 790.90,432.03 C796.47,430.15 801.25,429.10 802.63,429.44 C805.01,430.04 807.22,433.40 808.35,438.14 C808.87,440.30 808.58,440.88 806.74,441.37 C805.51,441.70 804.05,441.92 803.50,441.85 C802.95,441.78 801.38,441.57 800.00,441.37 ZM 767.57 433.11 C766.94,432.10 770.31,431.02 774.00,431.05 L 776.50 431.07 L 774.00 432.50 C771.13,434.14 768.37,434.40 767.57,433.11 ZM 776.27 417.25 C771.83,399.66 768.53,385.15 760.97,350.00 C759.25,342.02 757.61,334.60 757.32,333.50 C756.84,331.72 756.95,331.66 758.32,333.00 C761.73,336.34 771.21,356.58 777.52,374.00 C781.21,384.17 786.88,399.21 790.11,407.41 C793.35,415.61 796.00,422.50 796.00,422.72 C796.00,423.24 781.42,430.00 780.31,430.00 C779.86,430.00 778.04,424.26 776.27,417.25 ZM 764.32 423.81 C763.22,422.40 757.71,406.43 753.01,391.00 C751.41,385.77 747.84,375.03 745.05,367.13 C742.27,359.22 740.00,352.09 740.00,351.28 C740.00,350.47 739.34,348.38 738.54,346.65 C736.88,343.05 731.78,328.21 725.94,310.00 C723.74,303.12 720.33,292.63 718.38,286.68 C714.92,276.18 714.58,272.68 717.38,276.51 C718.74,278.36 725.69,296.46 733.14,317.50 C735.28,323.55 737.44,329.40 737.94,330.50 C738.43,331.60 739.75,335.20 740.86,338.50 C743.66,346.81 744.82,349.92 753.00,371.00 C768.63,411.26 772.41,421.99 771.36,423.02 C769.67,424.67 765.37,425.15 764.32,423.81 ZM 799.16 417.13 C797.80,412.60 797.62,406.00 798.86,406.00 C799.89,406.00 804.92,419.17 804.31,420.25 C804.07,420.66 803.08,421.00 802.10,421.00 C800.90,421.00 799.94,419.74 799.16,417.13 ZM 792.33 398.92 C791.69,397.59 790.71,395.15 790.15,393.50 C789.59,391.85 787.75,387.17 786.05,383.10 C781.34,371.82 783.03,372.24 790.52,384.23 C793.71,389.33 794.07,390.59 793.80,395.65 C793.53,400.80 793.39,401.11 792.33,398.92 ZM 759.45 374.75 C759.08,373.51 756.83,367.55 754.45,361.50 C752.08,355.45 745.82,338.80 740.54,324.50 C735.27,310.20 730.29,297.04 729.49,295.25 C727.72,291.31 729.36,290.88 731.38,294.75 C732.17,296.26 736.48,302.63 740.95,308.89 C745.42,315.16 749.49,321.05 749.98,321.97 C750.48,322.90 752.23,330.15 753.86,338.08 C755.50,346.01 758.00,357.88 759.42,364.45 C762.42,378.33 762.24,377.00 761.07,377.00 C760.55,377.00 759.83,375.99 759.45,374.75 ZM 779.70 360.25 C772.89,348.91 767.01,336.39 765.48,330.00 C762.11,315.90 759.54,306.96 755.27,294.50 C746.93,270.15 744.01,257.18 746.67,256.28 C747.39,256.04 749.04,259.81 751.01,266.19 C755.64,281.26 764.05,307.03 765.47,310.50 C766.15,312.15 768.40,318.67 770.48,325.00 C772.56,331.33 774.73,337.62 775.30,339.00 C775.87,340.38 776.43,341.84 776.54,342.25 C776.66,342.66 776.84,343.11 776.95,343.25 C777.06,343.39 777.30,344.17 777.48,345.00 C777.65,345.83 779.40,350.89 781.36,356.25 C783.31,361.61 784.52,366.00 784.03,366.00 C783.54,366.00 781.59,363.41 779.70,360.25 ZM 745.03 306.44 C740.57,299.53 720.39,272.36 716.67,268.24 C715.33,266.75 714.97,265.63 715.61,264.99 C716.15,264.45 721.89,262.79 728.36,261.30 C738.11,259.05 740.27,258.82 740.98,259.96 C741.44,260.72 742.51,265.42 743.36,270.42 C744.20,275.41 746.08,286.57 747.54,295.22 C748.99,303.87 750.02,311.45 749.81,312.08 C749.60,312.71 747.45,310.17 745.03,306.44 ZM 530.58 277.34 C529.63,274.86 530.01,107.00 530.96,107.00 C531.42,107.00 532.06,107.71 532.39,108.58 C533.38,111.15 533.10,279.00 532.11,279.00 C531.62,279.00 530.93,278.25 530.58,277.34 ZM 714.28 252.32 C714.94,244.53 715.71,242.00 717.41,242.00 C718.96,242.00 735.06,252.65 735.09,253.70 C735.11,254.41 726.53,256.70 717.10,258.50 L 713.70 259.15 L 714.28 252.32 ZM 586.00 130.72 C581.55,128.57 573.71,121.32 569.13,115.11 C565.17,109.74 567.38,110.58 574.67,117.21 C578.47,120.67 584.04,125.62 587.04,128.21 C593.05,133.39 592.80,134.01 586.00,130.72 ZM 559.76 115.62 C554.73,112.58 545.23,105.53 539.62,100.66 C537.61,98.91 537.60,98.85 539.50,99.52 C540.60,99.90 543.75,100.77 546.50,101.45 C556.26,103.87 558.54,105.38 562.44,112.03 C564.44,115.45 565.92,118.41 565.72,118.62 C565.52,118.82 562.84,117.47 559.76,115.62 ZM 543.50 96.28 C540.75,95.47 537.26,94.57 535.75,94.29 C532.32,93.65 532.26,92.66 535.55,91.16 C539.66,89.29 541.49,89.77 546.12,93.96 C550.93,98.31 550.79,98.43 543.50,96.28 Z" fill="rgb(254,254,254)"/>
</g>
</svg>